<?xml version="1.0" encoding="UTF-8"?>
<svg version="1.1" viewBox="0 0 2048 2048" width="40px" height="40px" xmlns="http://www.w3.org/2000/svg">
<path transform="translate(0)" d="m0 0h2048v2048h-2048z" fill="#FCF7F8"/>
<path transform="translate(0)" d="m0 0h2048v2048h-2048zm59 366v1552l2 17 6 14 7 9h2v2l10 7 13 5 6 1h1835l12-2 16-8 9-9 7-11 3-8 1-6v-1563z" fill="#0026E0"/>
<path transform="translate(1288,491)" d="m0 0h17l20 4 12 4 30 12 13 4h13l20-7 25-10 16-5 12-2h17l21 5 14 8 10 8 9 8 7 8 13 14 7 8 11 8 7 3 13 2 38 3 17 3 11 3 12 6 13 10 9 11 7 11 5 12 3 9 3 7 3 12 4 13 5 12 4 6 9 8 14 8 19 11 14 9 11 9 8 9 9 15 4 13 2 6v25l-6 41v22l7 14 9 13 12 18 5 7 6 12 4 13 2 10v23h-2l-1 9-5 13-7 12-10 16-10 14-8 13-2 4v23l6 41v26l-3 9-5 13-7 11-11 12-11 8-5 4-9 5-14 8-15 9-9 7-5 6-5 12-9 31-8 20-9 16-10 11-10 7-14 7-19 5-32 3-22 2-10 3-9 6-15 15-7 8-12 13-12 10-11 7-14 6-11 3h-21l-21-5-13-4-13-6-8-3-14-5-5-1h-12l-18 6-8 4-20 7-16 5-10 2h-24l-4-2-7-2-16-8-11-8-12-11-22-24-8-8-10-6-8-2-47-4-23-4v-2l-10-3-12-7-7-6v-2h-2l-9-12-7-12-10-30-7-22-5-11-7-8-14-9-12-6-9-6-13-8-13-10-8-9-4-5-6-11-3-8-1-8h-2l-1-12v-22l3-19h2l1-13 1-8v-16l-4-9-10-16-8-11-8-12-6-11-4-8-4-13v-5h-2l-1-16 1-9h2l1-10 3-10 10-18 8-12 14-20 7-13v-26l-2-13v-6h-2l-2-13v-31l1-5h2l1-7 4-11 9-13 9-10 13-10 19-11 21-12 8-6 6-6 3-7 4-13 3-7 7-24 6-15 8-13 9-11 13-10 10-5 13-4 18-3 45-4 10-3 8-5 5-4 7-8 15-16 11-12 13-10 15-8 8-3z" fill="#8BC7FE"/>
<path transform="translate(247,1521)" d="m0 0h1548l18 3 16 7 11 7 12 11 8 10 9 17 4 13 2 7v181l-4 20-4 10-9 15-11 12-10 8-12 7-14 5-10 2-13 1h-1531l-15-1-5-2-9-3-16-8-10-8-10-10-10-15-4-10-2-7v-4h-2l-1-13v-173l2-16 3-11 7-13 8-11 12-12 15-10 12-5 14-3z" fill="#75AAFE"/>
<path transform="translate(119,76)" d="m0 0h1797l29 1 12 3 11 6 10 10 6 10 3 8 1 13v154l-1 25h-1927v-180l2-16 4-8 6-8 8-8 14-7 7-2z" fill="#3C6FFE"/>
<path transform="translate(247,1521)" d="m0 0h1548l18 3 16 7 11 7 12 11 8 10 9 17 4 13 2 7v181l-4 20-4 10-9 15-11 12-10 8-12 7-14 5-10 2-13 1h-1531l-15-1-5-2-9-3-16-8-10-8-10-10-10-15-4-10-2-7v-4h-2l-1-13v-173l2-16 3-11 7-13 8-11 12-12 15-10 12-5 14-3zm7 60-7 3-8 7-5 7-2 8v155l1 14 3 9 6 7 10 5 3 1h1536l10-3 9-8 4-7 2-12v-157l-2-11-4-7-7-7-10-4z" fill="#0026E0"/>
<path transform="translate(273,1034)" d="m0 0h359l17 3 9 3 17 8 12 9 6 5 9 11 8 13 6 12 4 17 1 2v213l-6 20-8 16-7 10-9 10-8 7-11 7-12 6-18 5-7 1h-357l-13-2-20-6-16-10-13-12-7-8-7-11-6-13-3-7-2-12-1-11v-194l1-16 2-5 3-9 8-16 8-11 10-11 14-10 15-8 15-4z" fill="#D3E9FE"/>
<path transform="translate(1288,491)" d="m0 0h17l20 4 12 4 30 12 13 4h13l20-7 25-10 16-5 12-2h17l21 5 14 8 10 8 9 8 7 8 13 14 7 8 11 8 7 3 13 2 38 3 17 3 11 3 12 6 13 10 9 11 7 11 5 12 3 9 3 7 3 12 4 13 5 12 4 6 9 8 14 8 19 11 14 9 11 9 8 9 9 15 4 13 2 6v25l-6 41v22l7 14 9 13 12 18 5 7 6 12 4 13 2 10v23h-2l-1 9-5 13-7 12-10 16-10 14-8 13-2 4v23l6 41v26l-3 9-5 13-7 11-11 12-11 8-5 4-9 5-14 8-15 9-9 7-5 6-5 12-9 31-8 20-9 16-10 11-10 7-14 7-19 5-32 3-22 2-10 3-9 6-15 15-7 8-12 13-12 10-11 7-14 6-11 3h-21l-21-5-13-4-13-6-8-3-14-5-5-1h-12l-18 6-8 4-20 7-16 5-10 2h-24l-4-2-7-2-16-8-11-8-12-11-22-24-8-8-10-6-8-2-47-4-23-4v-2l-10-3-12-7-7-6v-2h-2l-9-12-7-12-10-30-7-22-5-11-7-8-14-9-12-6-9-6-13-8-13-10-8-9-4-5-6-11-3-8-1-8h-2l-1-12v-22l3-19h2l1-13 1-8v-16l-4-9-10-16-8-11-8-12-6-11-4-8-4-13v-5h-2l-1-16 1-9h2l1-10 3-10 10-18 8-12 14-20 7-13v-26l-2-13v-6h-2l-2-13v-31l1-5h2l1-7 4-11 9-13 9-10 13-10 19-11 21-12 8-6 6-6 3-7 4-13 3-7 7-24 6-15 8-13 9-11 13-10 10-5 13-4 18-3 45-4 10-3 8-5 5-4 7-8 15-16 11-12 13-10 15-8 8-3zm7 59-9 5-22 22-7 8-14 14-16 11-16 7-12 3-25 3-26 2-15 3-5 3-6 10-7 20-7 22-6 16-7 13-8 10-8 8-16 11-21 12-15 9-10 8-4 6v18l6 40v27l-2 10-5 14-10 19-16 23-7 11-5 10v10l8 16 12 17 10 16 8 14 5 14 2 9v29l-5 34-1 6v17l5 8 10 7 26 15 19 12 11 9 9 11 8 14 7 16 12 38 5 12 7 6 12 3 36 3 21 3 15 4 14 7 10 7h2l1 3 7 6h2l2 4 13 14 7 8 8 8h2l1 3 9 5h7l21-7 11-5 27-9 13-3 16-1 19 3 20 6 33 13 10 3h8l10-8 8-7 7-8 15-16 9-9 8-6 5-4 6-3 12-5 12-3 20-3 37-3 12-3 5-4v-2h2l5-11 11-34 6-16 7-15 6-9 8-8 2-1v-2l4-2 13-9 13-8 6-3 18-11 10-8 3-5 1-5-1-14-6-42v-19l3-17 4-11 3-7 6-10 5-9 8-11 10-15 7-14v-6l-8-16-10-15-9-13-9-15-6-13-4-17v-21l4-30 3-23v-8l-4-8-8-7-20-12-11-6-9-6-5-3-10-8-9-8-9-13-8-17-16-48-6-11-6-4-16-3-37-3-21-4-16-6-10-6-10-8-12-11-9-10-12-13-11-10-5-3h-11l-18 6-31 12-19 5-7 1h-17l-22-5-24-9-25-9z" fill="#0026E0"/>
<path transform="translate(273,1034)" d="m0 0h359l17 3 9 3 17 8 12 9 6 5 9 11 8 13 6 12 4 17 1 2v213l-6 20-8 16-7 10-9 10-8 7-11 7-12 6-18 5-7 1h-357l-13-2-20-6-16-10-13-12-7-8-7-11-6-13-3-7-2-12-1-11v-194l1-16 2-5 3-9 8-16 8-11 10-11 14-10 15-8 15-4zm18 59-16 2-11 6-4 5-4 4-6 12-1 3-1 56v78l1 60 2 9 6 10 5 6 10 6 5 2 6 1h344l12-3 9-6 8-9 4-8 2-12v-187l-3-11-5-8-6-7-10-6-8-2-79-1z" fill="#0026E0"/>
<path transform="translate(0)" d="m0 0h2048v105l-1-3h-2l-4-13-8-16-9-14-11-12-10-9-15-9-14-6-5-2-13-3-15-1h-1831l-20 2-17 4-10 4-14 8-14 11-11 12-10 15-7 15-2 8h-2l-1 6-2 2z" fill="#F7F5F8"/>
<path transform="translate(2047,1945)" d="m0 0h1v103h-2048v-102l2 1 2 5v3h2l6 16 6 11 11 14 5 5v2l4 2 10 8 12 7 15 6 16 4 7 1 17 1h1687l147-1 16-2 10-4 8-3 11-6 11-7 12-11 8-9 7-11 3-4 6-16 4-12z" fill="#F6F4F8"/>
<path transform="translate(258,678)" d="m0 0h496l10 5 8 8 4 7 1 5v11l-3 8-7 9-5 4-11 3h-495v-2l-5-1-8-6-7-10-1-6v-10l3-9 6-8 11-7z" fill="#0026E0"/>
<path transform="translate(259,524)" d="m0 0h495l10 5 5 4 6 9 2 7v10l-3 9-9 10-10 5-6 1h-487l-9-2-10-7-6-9-2-7v-11l3-9 8-9 9-5z" fill="#0026E0"/>
<path transform="translate(1546,759)" d="m0 0h8l10 3 8 6 6 9 3 9-1 9-6 12-8 10-8 7-315 315-9 6-6 2h-13l-9-4-7-6-5-8-2-6v-11l3-9 9-11 312-312 5-6 14-11 5-3z" fill="#0026E0"/>
<path transform="translate(1239,718)" d="m0 0h20l15 3 12 4 17 9 10 8 11 11 9 14 7 14 5 15 1 10v16l-3 19-8 20-9 14-11 12-10 8-15 9-16 6-18 3h-15l-17-3-15-5-16-9-10-8-10-10-10-15-7-15-4-15-1-7v-18l2-14 5-16 4-10 7-10 7-9 8-8 8-6 16-9 18-6z" fill="#0026E0"/>
<path transform="translate(1511,994)" d="m0 0h26l18 4 16 7 18 12 7 8 10 12 8 16 6 18 1 6v27l-3 14-6 16-9 15-11 12-9 8-11 7-15 7-14 4-5 1h-27l-17-4-12-5-14-8-10-8-10-10-9-14-6-12-5-16-1-6v-27l4-17 4-12 7-12 9-12 9-9 10-7 14-8 16-5z" fill="#0026E0"/>
<path transform="translate(258,833)" d="m0 0h336l7 2 9 6 6 9 3 9v9l-4 10-8 9-8 5-5 1h-334l-7-2-8-6-5-5-4-8-1-4v-14h2l1-6 9-10 8-4z" fill="#0127E0"/>
<path transform="translate(881,1656)" d="m0 0h32l14 3 10 5 6 8 4 11 1 16-2 13-5 10-9 8-10 4-11 2h-28l-2-1z" fill="#FBF7F8"/>
<path transform="translate(1516,1053)" d="m0 0h14l10 3 12 9 6 9 4 10v12l-3 10-6 9-4 5-8 5-11 4h-13l-11-4-8-6-7-8-5-13v-14l3-9 8-11 8-6 8-4z" fill="#F8F5F8"/>
<path transform="translate(1243,777)" d="m0 0h10l12 4 11 8 6 9 4 9v16l-4 10-6 8-7 6-9 5-4 1h-16l-10-4-8-6-6-7-5-11v-20l6-12 8-8h2v-2l6-1v-2z" fill="#F9F5F8"/>
<path transform="translate(524,160)" d="m0 0h25l13 4 8 6 6 7 4 11v8l-6 12-8 8-8 4-10 2h-20l-10-2-8-4-8-7-5-9-1-13 3-9 4-6 7-7 10-4z" fill="#0026E0"/>
<path transform="translate(365,160)" d="m0 0h24l12 3 9 6 6 7 4 9v13l-4 8-9 10-11 5-8 1h-19l-11-2-10-6-7-8-4-9v-13l5-10 4-5 9-6z" fill="#0026E0"/>
<path transform="translate(206,160)" d="m0 0h24l12 3 8 6 7 8 4 10v9l-3 7-6 9-8 6-7 3-7 1h-19l-11-2-10-5-9-9-3-7v-16l4-8 6-7 10-6z" fill="#0026E0"/>
<path transform="translate(821,1648)" d="m0 0h14l1 1v86l-1 1h-10l-2-2-2-4-7 4-9 2-10-1-6-4-6-10-2-7v-17l4-10 6-7 8-4h8l11 4 4 3-1-2z" fill="#FBF7F8"/>
<path transform="translate(1249,1676)" d="m0 0h9l3 2 1 5 8-4 5-3h11l8 3 7 8 2 5 1 7v9l-2 12-4 8-7 6-9 2-10-1-8-4v27l-1 2h-14z" fill="#FBF7F8"/>
<path transform="translate(1347,1675)" d="m0 0 9 1 8 7 5-1 10-6h12l6 3 5 6 2 5 1 10v34l-2 2h-13l-1-1-1-46h-10l-8 6-1 5-1 35-1 1h-13l-1-1-1-38-2-8-3-1-9 3-4 3-1 9-1 32-1 1h-13l-2-2 1-57 2-1h8l3 5v2l8-4 5-3z" fill="#FAF6F8"/>
<path transform="translate(1199,1676)" d="m0 0h15l11 4 7 6 3 7 1 6v12l-2 9-4 6-8 7-10 3h-13l-11-4-8-9-3-8v-17l6-12 8-7z" fill="#FBF7F8"/>
<path transform="translate(463,1676)" d="m0 0h15l11 4 6 5 4 9v22l-5 10-7 6-6 3-5 1h-13l-9-3-8-7-4-8-1-4v-14l4-11 7-8 7-4z" fill="#FBF7F8"/>
<path transform="translate(654,1656)" d="m0 0h45l1 1v10l-1 1h-29l1 19 25 1 1 1-1 11h-26l1 23 29 1v11l-1 1h-44l-1-1-1-78z" fill="#FCF7F8"/>
<path transform="translate(979,1676)" d="m0 0h13l10 4 7 7 3 9v10l-6 2-33 1 3 10 6 4h13l10-4 5 1v6l-4 6-6 3-5 1h-15l-10-3-8-7-4-8-1-4v-14l3-9 6-8 9-6z" fill="#FBF7F8"/>
<path transform="translate(1103,1676)" d="m0 0h12l11 4 7 7 2 5 1 12-2 3-3 1-34 1 1 5 3 6 5 3h13l10-4 5 1-1 7-4 6-10 3h-15l-10-3-8-7-4-8-1-5v-13l3-9 4-6 7-6z" fill="#FAF6F8"/>
<path transform="translate(1440,1676)" d="m0 0h10l10 3 8 7 3 6 1 12-1 3-5 1-33 1 1 6 4 6 3 2h14l10-4 5 1-1 7-3 5-6 3-6 1h-14l-10-3-7-6-5-10-1-3v-15l4-10 6-7 9-5z" fill="#FAF6F8"/>
<path transform="translate(717,1676)" d="m0 0h9l4 3v3l13-6h12l6 3 5 6 2 5 1 16v28l-2 2h-13l-1-1-1-46-7-1-7 3-5 5-1 39-1 1h-14l-1-7z" fill="#FAF6F8"/>
<path transform="translate(514,1676)" d="m0 0h7l4 2 1 5 10-6 3-1h11l8 4 4 4 2 7 1 15v29l-1 1h-14l-1-1-1-43-1-3-6-1-7 3-5 4-1 39-2 2h-13l-1-7 1-52z" fill="#FAF6F8"/>
<path transform="translate(1486,1676)" d="m0 0h9l3 4v3l10-6 3-1h11l8 4 4 4 2 7 1 16v28l-2 1h-13l-1-1-1-42-1-4-6-1-7 3-5 4-2 40-1 1h-12l-2-3 1-56z" fill="#FAF6F8"/>
<path transform="translate(342,1656)" d="m0 0h43l2 2-1 10-28 1 1 22 25 1 1 1-1 10-1 1h-25v31l-1 1h-15l-1-79z" fill="#FAF6F8"/>
<path transform="translate(1021,1676)" d="m0 0h9l5 5 9 28 3 9 3-7 9-31 4-4h12l1 3-6 20-9 27-5 9-2 1h-15l-4-4-14-41-4-11v-3z" fill="#FBF7F8"/>
<path transform="translate(898,1668)" d="m0 0h17l8 4 5 6 4 11v17l-4 8-9 8-7 2h-14l-1-3v-52z" fill="#76ABFE"/>
<path transform="translate(1561,1660)" d="m0 0 6 1 3 3v12h11l4 4v6l-2 2h-13l1 35h9l4 2v8l-2 2-5 1-13-1-5-3-3-6-1-17v-21l-8-1-2-2v-6l2-2 8-1v-12l2-3z" fill="#FAF6F8"/>
<path transform="translate(589,1660)" d="m0 0 7 1 2 2v13h13l2 2v8l-2 2h-13l1 35h10l3 2v9l-2 1h-18l-5-3-3-5-1-26v-13l-8-1-2-2v-6l2-2 8-1v-12l2-3z" fill="#FBF7F8"/>
<path transform="translate(1148,1648)" d="m0 0h15l1 1 1 12v30l-1 44-2 1h-12l-2-3z" fill="#FCF7F8"/>
<path transform="translate(401,1676)" d="m0 0h9l3 2 2 4 9-6h8l3 3v12l-1 1-11 1-6 4-1 37-3 2h-13v-59z" fill="#F9F6F8"/>
<path transform="translate(1201,1688)" d="m0 0h11l5 4 3 6v16l-3 5-5 4-3 1h-7l-6-4-3-5-1-12 3-10z" fill="#76ABFE"/>
<path transform="translate(465,1688)" d="m0 0h11l5 4 3 6v16l-3 5-5 4-2 1h-8l-6-4-3-5-1-10 2-10 5-6z" fill="#76ABFE"/>
<path transform="translate(291,1093)" d="m0 0h260l79 1 10 3-3 1-9-2h-344l-11 1 2-2z" fill="#6EA4FE"/>
<path transform="translate(1277,1687)" d="m0 0 6 2 4 7 1 4v12l-4 8-6 4-6-1-6-5-2-3-1-11 2-8 6-7z" fill="#76ACFE"/>
<path transform="translate(805,1688)" d="m0 0h7l8 7 2 7-1 11-4 6-5 4-7 1-6-5-2-5v-15l4-8z" fill="#76ABFE"/>
<path transform="translate(250,1122)" d="m0 0h1v47l1 153 1 8-2-2-2-9-1-60v-78l1-56z" fill="#72AAFE"/>
<path transform="translate(976,960)" d="m0 0 3 4 7 12 13 18 8 13 6 11 5 12 3 12 1 9v14l-3 26-3 19-1 18 5 10-4-2-3-6v-17l5-31 1-9v-29l-4-16-8-16-9-15-13-19-7-11-2-4z" fill="#6398FE"/>
<path transform="translate(1116,1246)" d="m0 0h2l7 21 4 6 5 3 8 2 42 3 8 2 6 1v2l-29-3-25-2-12-3-7-6-5-12-4-12z" fill="#669BFE"/>
<path transform="translate(1747,764)" d="m0 0 6 4 5 6 2 5-1 18-5 33-1 10v21l3 13-1 4-4-16v-28l6-42v-11l-2-8-8-7z" fill="#6296FE"/>
<path transform="translate(1024,764)" d="m0 0 2 1-8 7-3 6v11l6 43 1 23-2 13h-1v-34l-6-40v-18l6-8z" fill="#6397FE"/>
<path transform="translate(1107,1688)" d="m0 0 10 1 4 4-1 3h-23l1-4 5-3z" fill="#77ADFE"/>
<path transform="translate(984,1688)" d="m0 0 9 1 4 3v4h-24l1-4 5-3z" fill="#74AAFE"/>
<path transform="translate(1443,1688)" d="m0 0h7l6 3v4l-23 1 1-4 5-3z" fill="#78AEFE"/>
<path transform="translate(1642,1274)" d="m0 0 2 1-4 3-12 3-45 4-16 3-3-1 5-2 20-4 35-2 12-2z" fill="#6398FE"/>
<path transform="translate(464,1699)" d="m0 0h5l4 3-1 4-7 2-4-2v-4h2z" fill="#8CC8FE"/>
<path transform="translate(1747,764)" d="m0 0 6 4 5 6 2 5v8l-1 5h-1l-2-17-6-7-3-2z" fill="#6498FE"/>
<path transform="translate(1286,555)" d="m0 0 2 1-22 22-2-1 15-15z" fill="#6CA2FE"/>
<path transform="translate(1176,1281)" d="m0 0h8l8 2 6 1v2l-29-3v-1z" fill="#6094FE"/>
<path transform="translate(1229,782)" d="m0 0h2v2l-8 7-4 4h-2l-1 3-1-2 7-8 3-3h2v-2z" fill="#A8C8FC"/>
<path transform="translate(980,1690)" d="m0 0h4v2l-6 4h-5l1-4z" fill="#6297FE"/>
<path transform="translate(1024,764)" d="m0 0 2 1-8 7-3 6-1 11h-1v-13l6-8z" fill="#669BFE"/>
<path transform="translate(1736,1218)" d="m0 0 2 1-12 12-2 4-1-2 4-7z" fill="#B3D2FC"/>
<path transform="translate(1202,1700)" d="m0 0 4 2-2 4-4 1v-6z" fill="#8CC8FE"/>
<path transform="translate(1503,1059)" d="m0 0 2 1-11 11-2-1 7-8z" fill="#C0DAFC"/>
</svg>
