<svg xmlns="http://www.w3.org/2000/svg" x="0px" y="0px" width="50" height="50" viewBox="0,0,256,256">
<g fill="#000000" fill-rule="nonzero" stroke="none" stroke-width="1" stroke-linecap="butt" stroke-linejoin="miter" stroke-miterlimit="10" stroke-dasharray="" stroke-dashoffset="0" font-family="none" font-weight="none" font-size="none" text-anchor="none" style="mix-blend-mode: normal"><g transform="translate(0.09998,-25.10611) scale(5.12,5.12)"><path d="M25.7832,5.01953c-0.19506,-0.01731 -0.39305,-0.01709 -0.5918,0.00391c-0.797,0.087 -1.51167,0.47952 -2.01367,1.10352c-1.037,1.289 -0.83102,3.18175 0.45898,4.21875l3.30078,2.6543h-16.97656c-1.654,0 -3,1.346 -3,3c0,1.654 1.346,3 3,3h7.43555l-14.24023,11.50977c-0.647,0.523 -1.05067,1.26675 -1.13867,2.09375c-0.087,0.827 0.15083,1.64011 0.67383,2.28711c0.523,0.647 1.26675,1.05067 2.09375,1.13867c0.827,0.087 1.64011,-0.15083 2.28711,-0.67383l6.92578,-5.59766c0.579,7.941 7.96589,14.24219 16.96289,14.24219c9.374,0 17,-6.841 17,-15.25c0,-5.196 -2.90911,-9.97864 -7.78711,-12.80664l-12.77734,-10.27344c-0.46875,-0.3765 -1.02809,-0.59845 -1.61328,-0.65039zM30.96094,20c4.962,0 9,3.364 9,7.5c0,4.136 -4.038,7.5 -9,7.5c-4.962,0 -9,-3.364 -9,-7.5c0,-4.136 4.038,-7.5 9,-7.5zM30.96094,22c-3.31371,0 -6,2.23858 -6,5c0,2.76142 2.68629,5 6,5c3.31371,0 6,-2.23858 6,-5c0,-2.76142 -2.68629,-5 -6,-5z"></path></g></g><g fill="#000000" fill-rule="nonzero" stroke="none" stroke-width="1" stroke-linecap="butt" stroke-linejoin="miter" stroke-miterlimit="10" stroke-dasharray="" stroke-dashoffset="0" font-family="none" font-weight="none" font-size="none" text-anchor="none" style="mix-blend-mode: normal"><g><path d="M36.224,251.451h-16.42v-47.32h15.47c5.14,0 9.00333,1.06333 11.59,3.19c2.58667,2.12 3.88,5.26 3.88,9.42v0c0,2.21333 -0.62667,4.17 -1.88,5.87c-1.26,1.7 -2.97333,3.01667 -5.14,3.95v0c2.56,0.71333 4.58,2.07 6.06,4.07c1.48667,2.00667 2.23,4.39667 2.23,7.17v0c0,4.24667 -1.37667,7.58333 -4.13,10.01c-2.74667,2.42667 -6.63333,3.64 -11.66,3.64zM36.444,229.321h-10.4v17.03h10.31c2.9,0 5.19,-0.75333 6.87,-2.26c1.68,-1.50667 2.52,-3.58 2.52,-6.22v0c0,-5.7 -3.1,-8.55 -9.3,-8.55zM26.044,209.271v15.04h9.43c2.72667,0 4.91,-0.68 6.55,-2.04c1.63333,-1.36667 2.45,-3.22 2.45,-5.56v0c0,-2.6 -0.75667,-4.49 -2.27,-5.67c-1.52,-1.18 -3.83,-1.77 -6.93,-1.77v0zM66.834,201.531v49.92h-6.01v-49.92zM91.044,252.101v0c-4.76667,0 -8.64333,-1.56667 -11.63,-4.7c-2.99333,-3.12667 -4.49,-7.31333 -4.49,-12.56v0v-1.1c0,-3.48667 0.66667,-6.60333 2,-9.35c1.33333,-2.74 3.19667,-4.88333 5.59,-6.43c2.39333,-1.54667 4.98667,-2.32 7.78,-2.32v0c4.57333,0 8.13,1.50333 10.67,4.51c2.53333,3.01333 3.8,7.32667 3.8,12.94v0v2.5h-23.82c0.08667,3.46667 1.09667,6.26667 3.03,8.4c1.94,2.13333 4.40667,3.2 7.4,3.2v0c2.12,0 3.91667,-0.43333 5.39,-1.3c1.47333,-0.86667 2.76333,-2.01333 3.87,-3.44v0l3.67,2.86c-2.94667,4.52667 -7.36667,6.79 -13.26,6.79zM90.294,220.581v0c-2.42667,0 -4.46,0.88 -6.1,2.64c-1.64667,1.76667 -2.66667,4.24333 -3.06,7.43v0h17.62v-0.45c-0.17333,-3.06 -0.99667,-5.43 -2.47,-7.11c-1.48,-1.67333 -3.47667,-2.51 -5.99,-2.51zM111.714,216.291h5.69l0.2,4.41c2.68667,-3.37333 6.19667,-5.06 10.53,-5.06v0c7.42667,0 11.17333,4.19 11.24,12.57v0v23.24h-6.01v-23.27c-0.02,-2.53333 -0.6,-4.40667 -1.74,-5.62c-1.14,-1.21333 -2.91,-1.82 -5.31,-1.82v0c-1.95333,0 -3.66667,0.52 -5.14,1.56c-1.47333,1.04 -2.62,2.40333 -3.44,4.09v0v25.06h-6.02zM146.984,234.031v-0.45c0,-5.4 1.27667,-9.74 3.83,-13.02c2.56,-3.28 5.90667,-4.92 10.04,-4.92v0c4.12,0 7.38333,1.40667 9.79,4.22v0v-18.33h6.01v49.92h-5.53l-0.29,-3.77c-2.40667,2.94667 -5.75333,4.42 -10.04,4.42v0c-4.07333,0 -7.39333,-1.67 -9.96,-5.01c-2.56667,-3.33333 -3.85,-7.68667 -3.85,-13.06zM152.994,234.261v0c0,3.98667 0.82333,7.10667 2.47,9.36c1.64667,2.25333 3.92,3.38 6.82,3.38v0c3.81333,0 6.6,-1.71333 8.36,-5.14v0v-16.15c-1.8,-3.31333 -4.56333,-4.97 -8.29,-4.97v0c-2.94667,0 -5.24333,1.13667 -6.89,3.41c-1.64667,2.27333 -2.47,5.64333 -2.47,10.11zM200.574,252.101v0c-4.76667,0 -8.64667,-1.56667 -11.64,-4.7c-2.98667,-3.12667 -4.48,-7.31333 -4.48,-12.56v0v-1.1c0,-3.48667 0.66667,-6.60333 2,-9.35c1.33333,-2.74 3.19667,-4.88333 5.59,-6.43c2.39333,-1.54667 4.98667,-2.32 7.78,-2.32v0c4.57333,0 8.12667,1.50333 10.66,4.51c2.53333,3.01333 3.8,7.32667 3.8,12.94v0v2.5h-23.82c0.08667,3.46667 1.1,6.26667 3.04,8.4c1.94,2.13333 4.40333,3.2 7.39,3.2v0c2.12667,0 3.92667,-0.43333 5.4,-1.3c1.47333,-0.86667 2.76,-2.01333 3.86,-3.44v0l3.68,2.86c-2.94667,4.52667 -7.36667,6.79 -13.26,6.79zM199.824,220.581v0c-2.42667,0 -4.46333,0.88 -6.11,2.64c-1.64667,1.76667 -2.66667,4.24333 -3.06,7.43v0h17.62v-0.45c-0.17333,-3.06 -0.99667,-5.43 -2.47,-7.11c-1.47333,-1.67333 -3.46667,-2.51 -5.98,-2.51zM238.244,216.091v5.59c-0.91333,-0.15333 -1.9,-0.23 -2.96,-0.23v0c-3.94667,0 -6.62333,1.68 -8.03,5.04v0v24.96h-6.01v-35.16h5.85l0.1,4.06c1.96667,-3.14 4.76,-4.71 8.38,-4.71v0c1.16667,0 2.05667,0.15 2.67,0.45z"></path></g></g>
</svg>