<?xml version="1.0" encoding="UTF-8"?>
<svg version="1.1" viewBox="0 0 1296 1600" width="50" height="50" xmlns="http://www.w3.org/2000/svg">
<path transform="translate(623 .962)" d="m0 0c1.02 0.0169 2.03 0.0337 3.08 0.0511 1.11 0.0239 2.21 0.0478 3.35 0.0724 1.14 0.0212 2.28 0.0425 3.46 0.0644 2.42 0.0464 4.85 0.0953 7.27 0.147 3.67 0.0769 7.33 0.145 11 0.211 32.4 0.62 32.4 0.62 41 3.49 2.97 0.593 5.66 1 8.69 1 2.31 0 2.31 0 5.31 1 1.38 0.328 2.77 0.639 4.16 0.938 0.793 0.173 1.59 0.345 2.4 0.523 1.67 0.36 3.34 0.72 5.01 1.08 0.792 0.173 1.58 0.345 2.4 0.523 1.09 0.234 1.09 0.234 2.2 0.473 1.83 0.465 1.83 0.465 3.83 1.46 3.27 1.02 6.55 1.99 9.84 2.96 2.58 0.845 4.77 1.8 7.16 3.04 1.57 0.568 3.16 1.11 4.75 1.62 0.799 0.26 1.6 0.521 2.42 0.789 0.603 0.193 1.21 0.387 1.83 0.586v2c1.05 0.124 2.1 0.248 3.19 0.375 3.27 0.536 5.82 1.26 8.81 2.62v2c1.07 0.103 2.14 0.206 3.25 0.312 3.75 0.688 4.93 1.34 7.75 3.69 0.722 0.289 1.44 0.578 2.19 0.875 3.32 1.33 6.33 3.02 9.44 4.79 1.48 0.835 2.96 1.66 4.46 2.46 13.8 7.4 26.4 16.6 38.9 25.9 1.04 0.764 2.08 1.53 3.14 2.32 4.49 3.39 4.49 3.39 5.86 4.68v2c0.572 0.258 1.14 0.516 1.73 0.781 2.48 1.33 4.4 2.87 6.52 4.72 1.06 0.913 1.06 0.913 2.14 1.84 1.61 1.66 1.61 1.66 1.61 3.66 0.99 0.33 1.98 0.66 3 1v2c0.959 0.402 0.959 0.402 1.94 0.812 2.06 1.19 2.06 1.19 3.06 4.19 0.99 0.33 1.98 0.66 3 1v2h2c1.51 1.46 1.51 1.46 3.12 3.38 0.808 0.94 0.808 0.94 1.63 1.9 1.24 1.73 1.24 1.73 1.24 3.73 0.99 0.33 1.98 0.66 3 1 1.19 2.56 1.19 2.56 2 5h2c2.85 3.12 4.63 6.01 6 10h2c1.63 2.13 1.63 2.13 3.56 5.12 0.705 1.08 1.41 2.17 2.14 3.29 0.767 1.2 1.53 2.39 2.3 3.59 0.819 1.27 1.64 2.54 2.46 3.81 1.56 2.42 3.11 4.84 4.66 7.26 1.28 1.99 2.57 3.97 3.88 5.93v3h2c24.7 48.9 24.7 48.9 24 60h2c0.133 0.71 0.266 1.42 0.402 2.15 0.177 0.919 0.353 1.84 0.535 2.79 0.174 0.917 0.348 1.83 0.527 2.78 0.312 2.24 0.312 2.24 1.54 3.29 0.652 2.87 1.25 5.74 1.81 8.62 0.174 0.887 0.348 1.77 0.527 2.69 0.561 2.89 1.11 5.79 1.66 8.69l0.562 2.94c2.07 11 3.85 21.7 4.26 32.9 0.0848 3.05 0.0848 3.05 0.678 5.49 0.557 3.01 0.627 5.81 0.63 8.87 0.00129 1.17 0.00258 2.35 0.00391 3.56-0.00387 1.22-0.00773 2.44-0.0117 3.69 0.00387 1.21 0.00773 2.43 0.0117 3.68-0.00129 1.18-0.00258 2.35-0.00391 3.56-0.00169 1.6-0.00169 1.6-0.00342 3.24-0.13 3.11-0.581 6.02-1.13 9.08-0.148 2.35-0.271 4.71-0.375 7.06-0.358 6.7-1.12 13.3-2.06 19.9-0.122 0.871-0.245 1.74-0.371 2.64-0.771 5.23-1.84 10.3-3.19 15.4-0.443 1.84-0.443 1.84-0.895 3.72-2.02 8.3-4.32 16.4-6.96 24.6-1.2 3.88-2.2 7.77-3.15 11.7h-2c-0.0825 0.99-0.165 1.98-0.25 3-0.533 3.75-1.89 6.57-3.67 9.88-1.08 2.11-1.89 4.21-2.71 6.44-5.22 13.3-12.8 25.9-20.3 38-1.04 1.68-2.07 3.37-3.09 5.06l-1.89 3.07c-0.545 0.886-1.09 1.77-1.65 2.68-0.465 0.62-0.931 1.24-1.41 1.88h-2v3h-2c-0.227 0.525-0.454 1.05-0.688 1.59-1.77 3.25-4.03 6.07-6.31 8.97-2.42 3.1-4.82 6.16-7 9.44h-2c-0.268 0.583-0.536 1.17-0.812 1.77-1.2 2.26-2.53 4.04-4.19 5.98l-1.56 1.86c-1.44 1.39-1.44 1.39-3.44 1.39-0.33 0.99-0.66 1.98-1 3h-2v2c-1.39 1.33-1.39 1.33-3.25 2.81-2.33 1.91-4.01 3.53-5.88 5.94-2.11 2.54-3.75 3.3-6.88 4.25v2c-4.47 4-4.47 4-7 4v2c-1.51 1.33-1.51 1.33-3.62 2.83-1.16 0.83-1.16 0.83-2.34 1.68-0.818 0.576-1.64 1.15-2.48 1.75-0.783 0.561-1.57 1.12-2.37 1.7-4.02 2.87-8.08 5.69-12.2 8.47-0.726 0.496-1.45 0.992-2.2 1.5-1.83 1.08-1.83 1.08-3.83 1.08v2c-1.29 0.672-2.58 1.34-3.88 2-0.719 0.371-1.44 0.742-2.18 1.12-1.95 0.875-1.95 0.875-3.95 0.875v-2c-0.99 0.33-1.98 0.66-3 1v-3h-2c-3-5.75-3-5.75-3-8h-2c-0.424-0.86-0.848-1.72-1.29-2.61-3.63-7.31-7.36-14.5-11.3-21.7-1.16-2.31-1.91-4.22-2.38-6.74h-2c-0.401-0.83-0.802-1.66-1.21-2.52-1.97-3.84-4.13-7.53-6.35-11.2-3.68-6.19-7.23-12.4-10.7-18.8-2.96-5.39-6.02-10.6-9.53-15.6-1.6-2.43-2.83-4.98-4.08-7.61-2.03-3.99-4.42-7.79-6.75-11.6-1.39-2.64-1.39-2.64-1.39-5.64h-2c-3-5.75-3-5.75-3-8h-2c-1.15-2.25-2.3-4.5-3.44-6.75-0.488-0.951-0.488-0.951-0.986-1.92-1.55-3.06-2.97-5.93-3.58-9.33h-2c-0.33-1.65-0.66-3.3-1-5h-2c-2.98-5.24-2.98-5.24-3.06-8.12 1.64-2.89 4.3-4.07 7.06-5.88 9.22-6.7 18.4-13.6 24.9-23.1 0.681-0.969 1.36-1.94 2.06-2.94h2c0.232-0.665 0.464-1.33 0.703-2.02 1.34-3.08 2.95-5.76 4.72-8.6 12.4-20 17.3-41.9 16.6-65.4-0.0284-1.12-0.0567-2.24-0.0859-3.39-0.649-14.5-3.6-28.4-9.91-41.6-0.367-0.812-0.735-1.62-1.11-2.46-2.79-5.93-6.23-11.4-9.85-16.8-1.7-2.57-3.05-4.79-4.03-7.73h-2c-1.51-1.72-2.96-3.5-4.38-5.31-2.69-3.44-5.14-6.1-8.62-8.69v-2h-3c-1.17-1.13-2.33-2.27-3.45-3.45-7.42-7.44-16-11.5-25.5-15.6-1.33-0.588-1.33-0.588-2.7-1.19-13.4-5.67-26.5-8.03-41-8.11-1.45-0.0114-2.9-0.0317-4.35-0.0615-10.9-0.224-20.5 1.22-31 4.36-0.849 0.246-1.7 0.493-2.57 0.746-13.9 4.22-27.8 10.5-38.9 20-1.57 1.21-1.57 1.21-3.57 1.21v2c-1.5 1.48-1.5 1.48-3.56 3.19-7.1 5.66-7.1 5.66-12.4 12.8h-2v3h-2c-1.21 2.33-2.17 4.5-3 7h-2c-0.33 1.65-0.66 3.3-1 5h-2c-0.124 0.557-0.247 1.11-0.375 1.69-0.685 2.53-1.62 4.89-2.62 7.31h-2c-0.33 2.31-0.66 4.62-1 7h-2c0.0619 0.639 0.124 1.28 0.188 1.94-0.214 3.5-1.17 6.25-2.32 9.54-0.909 2.66-1.72 5.32-2.49 8.02-0.24 0.835-0.48 1.67-0.727 2.53-6.75 30.9 1.55 63.4 18.1 89.7 2.92 4.33 6.32 8.26 9.8 12.2 3.51 3.95 3.51 3.95 3.51 6.14 0.853 0.373 0.853 0.373 1.72 0.754 2.62 1.43 4.53 3.15 6.71 5.18 2.39 2.22 4.52 4.04 7.35 5.69 1.1 0.679 1.1 0.679 2.21 1.37v2c1.65 0.33 3.3 0.66 5 1v2h2c-0.875 5.75-0.875 5.75-2 8h-2c-0.11 0.567-0.219 1.13-0.332 1.72-0.763 2.61-1.9 4.49-3.36 6.78-2.24 3.63-4.22 7.28-6.06 11.1-2.9 5.95-6.33 11.5-9.91 17-1.77 2.76-3.3 5.22-4.34 8.34h-2c-0.107 0.563-0.214 1.13-0.324 1.71-0.788 2.67-1.99 4.63-3.49 6.98-2.85 4.62-5.13 9.3-7.19 14.3h-2v3h-2c-0.33 1.65-0.66 3.3-1 5h-2c-0.0825 0.701-0.165 1.4-0.25 2.12-0.921 3.53-2.68 5.89-4.75 8.88-0.33 0.99-0.66 1.98-1 3h-2c-0.195 0.878-0.195 0.878-0.395 1.77-1.76 6.49-5.82 12.4-9.34 18-1.4 2.25-1.4 2.25-2.27 5.2h-2c-0.0915 0.703-0.183 1.41-0.277 2.13-0.87 3.46-2.36 5.81-4.29 8.81-0.722 1.14-1.44 2.27-2.16 3.41-0.373 0.591-0.745 1.18-1.13 1.79-1.96 3.18-3.81 6.42-5.65 9.67-0.525 0.925-0.525 0.925-1.06 1.87-0.815 1.44-1.63 2.88-2.44 4.32-4.94-0.475-8.2-1.34-12.3-4.12-0.944-0.633-1.89-1.27-2.86-1.92l-2.83-1.96c-1.28-0.86-1.28-0.86-2.58-1.74-9.33-6.38-17.9-13.6-26.4-21-2.66-2.32-5.25-4.38-8.21-6.34-2.56-1.72-4.23-3.25-6.16-5.62-2.43-2.89-4.93-5.61-7.62-8.25-3.33-3.28-6.43-6.69-9.46-10.2-1.47-1.73-1.47-1.73-2.94-3.1-2.38-2.46-4.41-5.19-6.48-7.91-0.445-0.58-0.889-1.16-1.35-1.76-2.32-3.04-4.59-6.1-6.78-9.24-1.71-2.8-1.71-2.8-4-3.75-1.02-1.99-2.01-3.99-3-6-1.62-2.7-3.31-5.35-5-8-3-4.76-3-4.76-3-7h-2c-3-5.62-3-5.62-3-9h-2c-1.01-2.1-2.01-4.21-3-6.31-0.557-1.17-1.11-2.34-1.69-3.55-1.31-3.14-1.31-3.14-1.31-6.14h-2c-0.364-1.03-0.364-1.03-0.734-2.09-1.6-4.48-3.21-8.91-5.2-13.2-4.77-10.6-7.93-21.4-10.6-32.7-0.479-1.98-0.993-3.95-1.52-5.92-3.56-13.4-5.93-27-6.76-40.8-0.141-2.42-0.141-2.42-1.21-5.25-0.11-1.42-0.169-2.84-0.193-4.27-0.0158-0.866-0.0317-1.73-0.048-2.62-0.0161-1.41-0.0161-1.41-0.0326-2.85-0.0124-0.986-0.0249-1.97-0.0377-2.99-0.192-18.9-0.189-37.6 2.56-56.4 0.102-0.71 0.205-1.42 0.31-2.15 1.45-9.79 3.75-19.2 6.44-28.7 0.45-1.66 0.898-3.32 1.34-4.98 3.47-12.7 7.42-24.9 12.7-37 0.306-0.723 0.611-1.45 0.926-2.19 5.29-12.3 11.7-24.1 18.1-35.8h2c0.186-1.14 0.186-1.14 0.375-2.31 0.625-2.69 0.625-2.69 2.62-5.69h2c0.141-0.812 0.141-0.812 0.285-1.64 0.926-3.06 2.44-5.42 4.15-8.11 0.617-0.985 1.23-1.97 1.87-2.98 0.558-0.748 1.12-1.5 1.69-2.27h2c0.219-0.691 0.438-1.38 0.664-2.09 1.7-3.7 4.03-6.37 6.71-9.41 0.967-1.11 1.93-2.23 2.9-3.34 0.466-0.535 0.932-1.07 1.41-1.62 1.83-2.13 3.57-4.33 5.32-6.53 1.18-1.43 2.36-2.84 3.56-4.25 0.579-0.686 1.16-1.37 1.75-2.08 1.68-1.67 1.68-1.67 4.68-2.67 0.33-0.66 0.66-1.32 1-2 1-2 1-2 4-3l1-3h2v-2c1.29-1.34 1.29-1.34 3.19-2.94l2.21-1.88 2.6-2.19c1.01-0.874 2.03-1.75 3.04-2.62 16.5-14.3 35.3-27.8 55-37.4 0.764-0.388 1.53-0.776 2.32-1.18 10.5-5.33 21.2-10.1 32.2-14.4 2.35-0.933 4.68-1.91 6.98-2.94 3.64-1.5 7.21-2.54 11-3.52 3.67-0.945 7.34-1.89 11-2.96 4.44-1.23 8.92-2.08 13.4-2.92 3.32-0.411 3.32-0.411 6.08-2.06 2.19-0.359 4.39-0.66 6.59-0.938 0.66-0.085 1.32-0.17 2-0.258 2.12-0.272 4.23-0.539 6.35-0.805 2.11-0.266 4.23-0.533 6.34-0.805 1.92-0.247 3.84-0.489 5.76-0.73 9.61-1.51 9.61-1.51 9.84-1.5zm-4.87 1.04v1h9v-1h-9zm62 2v1h5v-1h-5z" fill="#FA0202"/>
<path transform="translate(838,638)" d="m0 0c0.818 1.58 1.63 3.16 2.44 4.75 0.452 0.882 0.905 1.76 1.37 2.67 1.03 2.22 1.71 4.19 2.19 6.58h2c2.4 4.58 4.51 9.03 6 14h2c3 5.62 3 5.62 3 9h2c0.33 1.65 0.66 3.3 1 5h2c3 5.75 3 5.75 3 8h2c1.15 2.25 2.3 4.5 3.44 6.75 0.325 0.634 0.651 1.27 0.986 1.92 1.55 3.06 2.97 5.93 3.58 9.33h2c0.33 1.65 0.66 3.3 1 5h2c0.266 0.543 0.531 1.09 0.805 1.64 0.353 0.715 0.706 1.43 1.07 2.17 0.522 1.06 0.522 1.06 1.05 2.14 1.14 2.26 1.14 2.26 3.07 5.04v3h2c0.317 0.681 0.634 1.36 0.961 2.06 3.47 7.21 7.4 13.9 11.8 20.6 3.25 5.03 3.25 5.03 3.25 8.35h2c0.33 1.65 0.66 3.3 1 5h2c0.41 0.831 0.82 1.66 1.24 2.52 0.539 1.09 1.08 2.17 1.63 3.29 0.534 1.08 1.07 2.16 1.62 3.27 1.48 3 1.48 3 3.51 5.92v3h2c0.33 1.65 0.66 3.3 1 5h2v3h2c0.33 1.65 0.66 3.3 1 5h2v3h-3v2c-2.27 1.66-2.27 1.66-5.25 3.5-0.975 0.608-1.95 1.22-2.95 1.84-2.23 1.32-4.45 2.54-6.8 3.66v2c-1.39 1.33-1.39 1.33-3.25 2.81-3.02 2.48-5.32 5.12-7.75 8.19h-2v2h-2c-0.289 0.763-0.577 1.53-0.875 2.31-1.12 2.69-1.12 2.69-3.12 5.69h-2v3h-2c-0.33 1.65-0.66 3.3-1 5h-2c-0.106 0.532-0.211 1.06-0.32 1.61-0.866 3.04-2.19 5.73-3.55 8.57-2.44 5.2-4.45 10.3-6.12 15.8-0.322 0.898-0.645 1.8-0.977 2.72-5.14 16.4-6.32 36.3-2.47 53.1 0.645 3.1 0.585 5.99 0.445 9.14h2c0.098 0.629 0.196 1.26 0.297 1.91 0.927 5.31 2.18 9.64 4.9 14.3 0.805 1.79 0.805 1.79 0.805 5.79h2c0.99 2.97 1.98 5.94 3 9h2c0.33 1.65 0.66 3.3 1 5h2c0.577 1.07 1.15 2.14 1.75 3.25 1.74 3.07 3.71 5.3 6.25 7.75v2h2c1.26 1.32 1.26 1.32 2.69 3.12 2.72 3.31 5.64 5.97 8.99 8.61 0.436 0.416 0.871 0.833 1.32 1.26v2c0.773 0.371 0.773 0.371 1.56 0.75 3.21 1.65 6.31 3.45 9.44 5.25v2c2.65 1.08 5.28 2.09 8 3v2c0.825 0.0825 1.65 0.165 2.5 0.25 3.64 0.781 6.33 2.04 9.57 3.81 1.96 0.954 3.8 1.48 5.93 1.94v2c1.26 0.103 2.52 0.206 3.81 0.312 4.59 0.497 8.82 1.61 13.2 2.97 7.24 1.75 14.6 1.88 22 1.84 0.838 0.00387 1.68 0.00773 2.54 0.0117 8.28-0.0128 16-0.805 24-3.01 0.644-0.177 1.29-0.354 1.95-0.537 5.92-1.65 11.7-3.43 17.4-5.78 2.12-0.812 2.12-0.812 5.12-0.812v-2c0.615-0.266 1.23-0.531 1.86-0.805 1.21-0.53 1.21-0.53 2.45-1.07 0.801-0.348 1.6-0.696 2.43-1.05 2.46-1.1 2.46-1.1 5.26-3.07h3v-2c1.74-1.45 3.54-2.81 5.38-4.12 0.998-0.724 2-1.45 3.02-2.2 2.6-1.68 2.6-1.68 4.6-1.68 0.33-0.99 0.66-1.98 1-3h2v-2c1.38-1.62 1.38-1.62 3-3h2v-2c1.38-1.62 1.38-1.62 3-3h2c0.309-0.99 0.309-0.99 0.625-2 1.55-3.38 3.54-5.97 5.8-8.9 5.51-7.33 11.1-16 12.6-25.1h2c0.124-0.969 0.247-1.94 0.375-2.94 0.624-4.41 1.61-8.73 2.62-13.1h2c2.36-31.8 2.36-31.8-4.2-62.6-0.862-2.62-0.952-4.71-0.805-7.45h-2c-0.219-0.678-0.438-1.36-0.664-2.05-2.82-8.28-6.8-15.2-11.7-22.4-1.62-2.5-1.62-2.5-1.62-4.5h-2c-1.44-1.61-1.44-1.61-3-3.75-0.516-0.696-1.03-1.39-1.56-2.11-1.44-2.14-1.44-2.14-2.44-4.34-0.931-2.15-0.931-2.15-4-2.8v-2c-0.572-0.268-1.14-0.536-1.73-0.812-2.34-1.23-4.39-2.61-6.52-4.19-1.06-0.773-1.06-0.773-2.14-1.56-0.531-0.474-1.06-0.949-1.61-1.44v-2c-0.701-0.247-1.4-0.495-2.12-0.75-3.25-1.41-5.98-3.23-8.88-5.25 0.699-3.15 1.76-6.03 3-9h2c0.275-0.709 0.549-1.42 0.832-2.15 3.42-8.35 7.76-16.1 12.8-23.6 1.56-2.3 1.56-2.3 2.42-5.28h2c0.33-1.65 0.66-3.3 1-5h2c0.0722-0.668 0.144-1.34 0.219-2.02 1.05-4.02 3.08-7.11 5.28-10.6 3.17-4.98 3.17-4.98 5.5-10.4h2c0.125-0.589 0.249-1.18 0.377-1.79 0.99-3.52 3.07-6.45 5-9.53 2.99-4.78 5.52-9.45 7.62-14.7h2c0.33-1.65 0.66-3.3 1-5h2c0.0825-0.701 0.165-1.4 0.25-2.12 0.921-3.53 2.68-5.89 4.75-8.88 0.33-0.99 0.66-1.98 1-3h2c0.404-1.05 0.404-1.05 0.816-2.13 1.24-3.02 2.65-5.9 4.12-8.81 0.504-0.999 1.01-2 1.53-3.03 0.76-1.5 0.76-1.5 1.54-3.04 1-2 2-4 3-6h2c1.08-2.65 2.09-5.28 3-8h2c0.33-1.65 0.66-3.3 1-5h2c0.124-0.763 0.247-1.53 0.375-2.31 0.625-2.69 0.625-2.69 2.62-5.69 3.72 0.648 6.31 2.32 9.44 4.38 2.78 1.82 5.52 3.6 8.41 5.23 0.71 0.461 1.42 0.923 2.15 1.4v2c1.18 0.464 1.18 0.464 2.38 0.938 2.62 1.06 2.62 1.06 4.62 2.06v2c1.32 0.33 2.64 0.66 4 1v2h3c1.69 1.38 1.69 1.38 3 3v2c0.722 0.247 1.44 0.495 2.19 0.75 3.09 1.37 5.32 2.97 7.81 5.25v2c0.99 0.33 1.98 0.66 3 1v2c0.763 0.268 1.53 0.536 2.31 0.812 2.58 1.14 3.96 2 5.69 4.19v2h2c1.62 1.38 1.62 1.38 3 3v2c0.99 0.33 1.98 0.66 3 1v2h2c5 5.48 5 5.48 5 8 0.99 0.33 1.98 0.66 3 1v2h2c1.51 1.68 1.51 1.68 3.12 3.88 0.539 0.719 1.08 1.44 1.63 2.18 1.24 1.95 1.24 1.95 1.24 3.95h2c1.29 1.46 1.29 1.46 2.76 3.52 0.809 1.13 0.809 1.13 1.63 2.28 0.572 0.812 1.14 1.62 1.73 2.46 0.585 0.823 1.17 1.65 1.77 2.49 1.71 2.41 3.41 4.83 5.1 7.26 0.641 0.917 0.641 0.917 1.3 1.85 6.93 9.98 12.5 20.5 17.8 31.4 1.58 3.2 3.2 6.32 5.01 9.39 1.63 2.91 2.82 5.58 3.88 8.73 1.18 3.41 2.45 6.68 4 9.94 2.27 4.95 3.65 10.1 5.07 15.4 0.578 2.07 1.2 4.13 1.89 6.17 1.37 4.16 2.49 8.37 3.61 12.6 0.221 0.82 0.442 1.64 0.67 2.49 0.976 3.7 1.86 7.32 2.36 11.1 0.0897 2.85 0.0897 2.85 1.41 3.96 0.661 3.14 1.05 6.33 1.5 9.5 0.135 0.942 0.269 1.88 0.408 2.86 1.01 7.36 1.58 14.7 1.88 22.1 0.136 3.46 0.136 3.46 0.716 6.42 0.481 3.05 0.624 5.9 0.628 8.99 0.00129 1.08 0.00258 2.16 0.00391 3.28-0.00387 1.12-0.00773 2.23-0.0117 3.38 0.00387 1.12 0.00773 2.23 0.0117 3.38-0.00129 1.08-0.00258 2.16-0.00391 3.28-0.00169 1.47-0.00169 1.47-0.00342 2.96-0.136 3.03-0.6 5.9-1.13 8.88-0.148 2.35-0.271 4.71-0.375 7.06-0.824 14.9-3.21 29.5-7.11 43.9-0.742 2.87-1.37 5.75-2.02 8.64-1.36 6.09-2.88 11.9-5.38 17.6-1.19 2.86-2.19 5.75-3.19 8.69-2.7 7.94-5.85 15.5-9.52 23-1.47 2.93-1.47 2.93-2.42 5.98h-2c-0.106 0.708-0.211 1.42-0.32 2.14-2.16 9.06-8.72 17.7-13.5 25.7-0.48 0.807-0.96 1.61-1.45 2.45-0.455 0.746-0.909 1.49-1.38 2.26-0.406 0.671-0.812 1.34-1.23 2.03-0.371 0.477-0.743 0.954-1.13 1.45h-2v3h-2c-0.289 0.763-0.577 1.53-0.875 2.31-1.12 2.69-1.12 2.69-3.12 5.69h-2c-0.247 0.722-0.495 1.44-0.75 2.19-1.37 3.09-2.97 5.32-5.25 7.81h-2v3c-1.38 1.69-1.38 1.69-3 3h-2c-0.209 0.526-0.418 1.05-0.633 1.59-1.94 3.42-4.55 6.06-7.24 8.91-0.795 0.853-0.795 0.853-1.61 1.72-1.5 1.6-3.01 3.19-4.52 4.78-0.745 0.794-1.49 1.59-2.26 2.41-1.74 1.59-1.74 1.59-3.74 1.59v2c-1.46 1.51-1.46 1.51-3.38 3.12-0.626 0.539-1.25 1.08-1.9 1.63-1.73 1.24-1.73 1.24-3.73 1.24v2h-2v2c-1.59 1.93-3.12 3.07-5.29 4.34-3.79 2.33-7.09 5.18-10.5 8.02-2.21 1.64-2.21 1.64-4.21 1.64v2c-1.61 0.866-1.61 0.866-3.25 1.75-2.32 1.31-3.91 2.41-5.81 4.31-2.4 2.4-4.85 3.59-7.94 4.94h-2v2c-1.01 0.495-2.02 0.99-3.06 1.5-4.92 2.45-9.74 5.06-14.6 7.68-8.94 4.82-8.94 4.82-13.4 4.82v2c-3.25 1.34-6.5 2.67-9.75 4-1.38 0.572-1.38 0.572-2.79 1.16-1.33 0.541-1.33 0.541-2.7 1.09-0.817 0.335-1.63 0.67-2.48 1.02-2.29 0.734-2.29 0.734-6.29 0.734v2c-0.557 0.11-1.11 0.219-1.69 0.332-4.62 0.96-8.88 2.2-13.3 3.94-3.03 1.07-6.12 1.68-9.27 2.3-1.8 0.268-1.8 0.268-2.79 1.43-2.14 0.52-4.28 0.99-6.44 1.44-1.17 0.246-2.35 0.492-3.56 0.746-0.953 0.193-0.953 0.193-1.92 0.39-1.47 0.301-2.94 0.613-4.4 0.932-6.15 1.31-12.2 2.04-18.5 2.56-1.82 0.155-3.64 0.313-5.46 0.473-0.79 0.0658-1.58 0.132-2.39 0.199-2.33 0.217-2.33 0.217-4.52 0.782-4.21 0.722-8.38 0.666-12.6 0.687-0.964 0.00683-1.93 0.0137-2.92 0.0207-3.13 0.0171-6.25 0.0233-9.38 0.0262-1.06 2e-3 -2.11 0.00401-3.2 0.00607-33.1 0.0154-33.1 0.0154-48.7-3.26-0.33-0.33-0.66-0.66-1-1-1.64-0.344-3.3-0.635-4.95-0.902-1.52-0.252-1.52-0.252-3.07-0.51-2.14-0.348-4.28-0.694-6.41-1.04-1.02-0.17-2.03-0.339-3.08-0.514-0.931-0.151-1.86-0.301-2.82-0.457-2.73-0.592-5.1-1.5-7.66-2.58-3.46-1.03-6.94-1.98-10.4-2.93-5.99-1.64-11.7-3.38-17.3-6.05-4.63-2.04-9.49-3.48-14.3-5.02v-2c-1.05-0.186-1.05-0.186-2.12-0.375-3.05-0.663-5.93-1.6-8.88-2.62v-2c-0.722-0.124-1.44-0.248-2.19-0.375-2.77-0.615-5.21-1.51-7.81-2.62v-2c-1.65-0.33-3.3-0.66-5-1v-2c-0.866-0.186-0.866-0.186-1.75-0.375-2.27-0.631-4.18-1.51-6.25-2.62v-2c-0.66-0.0619-1.32-0.124-2-0.188-4.12-1.12-7.66-3.15-11-5.81v-2h-3v-2c-0.763-0.289-1.53-0.577-2.31-0.875-2.69-1.12-2.69-1.12-5.69-3.12v-2h-3v-2c-1.32-0.33-2.64-0.66-4-1v-2c-0.619-0.309-1.24-0.619-1.88-0.938l-4.12-2.06v-2c-0.99-0.33-1.98-0.66-3-1v-2c-0.577-0.268-1.15-0.536-1.75-0.812-2.31-1.22-4.27-2.49-6.25-4.19v-2c-0.835-0.309-0.835-0.309-1.69-0.625-2.58-1.54-4.06-3.4-5.9-5.74-1.48-1.71-3.04-3.08-4.79-4.51-4.01-3.33-7.3-7.13-10.6-11.1-0.804-0.949-1.61-1.9-2.44-2.88-1.56-2.12-1.56-2.12-1.56-4.12h-2c-1.62-1.31-1.62-1.31-3-3v-3h-2c-1.63-2.09-3.14-4.18-4.62-6.38-0.63-0.905-0.63-0.905-1.27-1.83-3.1-4.53-3.1-4.53-3.1-6.8h-2v-3h-2c-1.13-1.43-1.13-1.43-2.36-3.45-0.454-0.74-0.908-1.48-1.38-2.24-0.48-0.804-0.961-1.61-1.46-2.44-0.494-0.817-0.988-1.63-1.5-2.48-3.55-5.95-6.75-12-9.76-18.2-1.48-3.02-3.08-5.93-4.74-8.86-2.46-4.44-4.24-8.91-5.88-13.7-0.858-2.41-1.84-4.67-2.93-6.98-2.15-4.69-3.59-9.54-5.05-14.5-0.803-2.67-1.69-5.27-2.63-7.89-1.5-4.39-1.95-8.63-2.31-13.2h-2c-0.11-0.788-0.219-1.58-0.332-2.39-0.821-5.64-1.75-11.2-3.17-16.7-1.62-6.69-2.27-13.4-2.85-20.2-0.0715-0.826-0.143-1.65-0.217-2.5-0.0595-0.739-0.119-1.48-0.18-2.24-0.211-2.18-0.211-2.18-1.25-4.97-0.0922-1.63-0.128-3.27-0.129-4.9-0.00315-0.994-0.0063-1.99-0.00955-3.01 0.00202-1.07 0.00405-2.14 0.00613-3.25-9.57e-4 -1.1-0.00191-2.2-0.0029-3.34-6.81e-4 -2.33 0.00117-4.66 0.00534-6.98 0.00535-3.57 4.87e-5 -7.15-0.00635-10.7 6.61e-4 -2.26 0.00194-4.52 0.00391-6.78-0.00304-1.61-0.00304-1.61-0.00613-3.25 0.00315-0.991 0.0063-1.98 0.00955-3 7.96e-4 -0.875 0.00159-1.75 0.00241-2.65 0.127-2.12 0.127-2.12 1.13-4.12 0.195-2.12 0.385-4.25 0.545-6.37 0.72-9.42 2.03-18.6 3.89-27.9 0.205-1.03 0.411-2.07 0.622-3.13 1.1-5.3 2.42-10.4 4.21-15.5 1.2-3.48 2.16-7.02 3.17-10.6 1.84-6.36 3.96-12.5 6.56-18.6 0.607-1.54 1.21-3.08 1.81-4.62 4.32-10.7 8.73-21.1 14.8-31 1.51-2.38 1.51-2.38 2.38-5.36h2c0.33-1.65 0.66-3.3 1-5h2c0.186-0.866 0.186-0.866 0.375-1.75 0.631-2.27 1.51-4.18 2.62-6.25h2c0.186-0.866 0.186-0.866 0.375-1.75 0.631-2.27 1.51-4.18 2.62-6.25h2c0.268-0.763 0.536-1.53 0.812-2.31 1.15-2.61 2.17-3.76 4.19-5.69 0.495-1.49 0.495-1.49 1-3h2c0.247-0.536 0.495-1.07 0.75-1.62 1.56-2.96 3.28-5.67 5.25-8.38h2c0.495-1.49 0.495-1.49 1-3h2c0.66-1.65 1.32-3.3 2-5h2c0.257-0.585 0.513-1.17 0.777-1.77 1.33-2.42 2.79-3.96 4.79-5.85 2.58-2.42 2.58-2.42 4.44-5.38h2c0.33-0.99 0.66-1.98 1-3h2v-2c1.64-1.69 1.64-1.69 3.81-3.56 0.708-0.62 1.42-1.24 2.14-1.88 2.04-1.56 2.04-1.56 5.04-2.56v-2c1.73-1.61 3.54-3.14 5.38-4.62 0.998-0.817 2-1.63 3.02-2.48 2.6-1.9 2.6-1.9 4.6-1.9v-2c1.44-1.24 1.44-1.24 3.43-2.6 0.713-0.49 1.43-0.98 2.16-1.48 0.754-0.508 1.51-1.02 2.29-1.54 0.746-0.516 1.49-1.03 2.26-1.56 5.6-3.81 5.6-3.81 7.86-3.81v-2h3v-2c1.65-0.33 3.3-0.66 5-1v-2c3.37-2.43 4.73-3 9-3z" fill="#0004FC"/>
<path transform="translate(352 600)" d="m0 0c2.55 0.537 5.11 0.945 7.68 1.33 33 5.46 67.4 16.8 95.5 35.1-0.899 7.19-5.21 13.5-8.71 19.7-0.882 1.57-1.75 3.15-2.62 4.73-0.429 0.786-0.859 1.57-1.3 2.38-0.576 1.06-0.576 1.06-1.16 2.14-1.21 2.04-1.21 2.04-2.67 3.96-1.78 2.4-3.14 4.88-4.54 7.52-1.91 3.58-3.91 7.08-6 10.6-1.45 2.55-2.88 5.12-4.31 7.69-3.04 5.42-6.14 10.8-9.36 16.1-1.73 2.89-3.35 5.83-4.96 8.78-2.21 3.95-4.51 7.84-6.81 11.7-1.27 2.2-2.45 4.41-3.55 6.7h-2c-0.309 1.45-0.309 1.45-0.625 2.94-1.17 4.11-3.32 7.16-5.74 10.6-2.25 3.35-4.1 6.87-6.01 10.4-5.52 10.2-11.5 20.2-17.6 30-4.03-1.3-7.92-2.77-11.8-4.44-5.01-2.1-9.98-4.01-15.2-5.56-0.785-0.257-1.57-0.513-2.38-0.777-24.9-7.3-50.7-4.44-74.6 4.78-0.984 0.352-1.97 0.704-2.98 1.07-7.69 2.85-14.5 7.01-21 11.9-0.763 0.433-1.53 0.866-2.31 1.31-3.01 1.89-5.51 4.09-8.14 6.48-1.55 1.21-1.55 1.21-3.55 1.21-0.0619 0.578-0.124 1.15-0.188 1.75-1.14 3.17-3.16 4.17-5.81 6.25-12.7 13-21.5 29.3-27.1 46.4-0.875 2.56-0.875 2.56-1.88 3.56-8.33 31-2.86 64.4 12.6 92.1 2.94 5.04 6.26 9.79 9.7 14.5 1.65 2.44 1.65 2.44 1.65 4.44 0.905 0.391 0.905 0.391 1.83 0.789 2.35 1.31 3.32 2.45 4.92 4.59 17.3 20.3 47.4 31.9 73.2 34.6 14.2 0.646 28.2 0.669 42-3 0.645-0.166 1.29-0.333 1.96-0.504 13.8-3.62 26.7-9.45 38-18.1 2.02-1.35 2.02-1.35 4.22-1.85 0.593-0.164 1.19-0.327 1.8-0.496 0.33-0.99 0.66-1.98 1-3 1.57-1.51 1.57-1.51 3.56-3.12 7.33-6.23 15.1-14.2 19.4-22.9h2c0.124-0.578 0.248-1.16 0.375-1.75 0.631-2.27 1.51-4.18 2.62-6.25h2c0.189-1.09 0.189-1.09 0.383-2.2 0.595-2.7 1.42-5.01 2.49-7.55 1.92-4.7 3.64-9.39 5.12-14.2 0.343-1.08 0.686-2.16 1.04-3.27 2.95-9.96 3.72-19.4 3.96-29.7 2.97-1.48 5.63-1.13 8.95-1.13 0.723-0.00227 1.45-0.00453 2.19-0.00687 2.44-0.00636 4.87-0.00551 7.31-0.00469 1.74-0.00299 3.48-0.00639 5.22-0.0102 4.74-0.00885 9.47-0.0112 14.2-0.0118 3.95-9.48e-4 7.9-0.00462 11.8-0.00817 9.31-0.00815 18.6-0.0106 27.9-0.00987 9.62 6.01e-4 19.2-0.00996 28.9-0.0257 8.25-0.0131 16.5-0.0184 24.7-0.0178 4.93 2.56e-4 9.86-0.00263 14.8-0.0132 4.64-0.00964 9.27-0.00979 13.9-0.00248 1.71 0.00105 3.41-0.00134 5.12-0.00736 2.32-0.00766 4.64-0.00312 6.96 0.00463 1.95-8.17e-4 1.95-8.17e-4 3.94-0.00165 3 0.249 3 0.249 5 2.25 0.151 2.95 0.151 2.95 0.0117 6.69-0.0227 0.658-0.0453 1.32-0.0686 1.99-0.05 1.39-0.105 2.78-0.165 4.18-0.0907 2.13-0.165 4.27-0.238 6.4-0.39 10.4-0.39 10.4-1.54 12.7-0.315 2.08-0.585 4.17-0.832 6.27-0.159 1.28-0.318 2.57-0.482 3.89-0.328 2.68-0.647 5.36-0.961 8.05-1.12 8.92-3.06 17.2-5.72 25.8-0.993 3.43-1.97 6.87-2.89 10.3-2.15 7.86-4.86 15.2-8.11 22.7-0.673 1.68-1.34 3.37-2 5.06-3.75 9.38-8.17 18.3-13 27.2-0.377 0.701-0.755 1.4-1.14 2.12-0.51 0.94-0.51 0.94-1.03 1.9-0.994 1.89-0.994 1.89-1.86 4.73h-2c-1.08 2.65-2.09 5.28-3 8h-2c-1.08 2.65-2.09 5.28-3 8h-2c-0.289 0.763-0.578 1.53-0.875 2.31-1.12 2.69-1.12 2.69-3.12 5.69h-2c-0.206 0.66-0.413 1.32-0.625 2-1.87 4.07-4.35 7.69-7.38 11h-2c-0.66 1.65-1.32 3.3-2 5h-2c-0.266 0.571-0.531 1.14-0.805 1.73-3.44 6.53-8.44 11.8-14.1 16.4-3.28 2.84-6.24 5.99-9.24 9.12-1.88 1.72-1.88 1.72-3.88 1.72-0.34 0.866-0.34 0.866-0.688 1.75-1.66 2.85-3.63 4.37-6.31 6.25h-2v2c-1.61 1.15-1.61 1.15-3.75 2.38-3.26 1.87-5.61 3.96-8.25 6.62-8.18 6.37-16.7 12.7-26.2 17-1.89 0.922-1.89 0.922-3.61 2.34-2.91 2.13-6.05 3.71-9.27 5.3-0.693 0.345-1.39 0.69-2.1 1.05-7.65 3.75-15.5 7.03-23.4 10.2-1.76 0.728-3.52 1.47-5.27 2.23-7.18 3.08-14.4 5.59-21.9 7.79-1.17 0.342-2.33 0.685-3.54 1.04-11.8 3.38-23.7 5.89-35.8 7.96-0.874 0.164-1.75 0.327-2.65 0.496-30 5.54-64.4 4.95-94.4-0.496-1.03-0.177-2.06-0.354-3.12-0.536-13.3-2.31-26.1-5.4-38.9-9.78-2.84-0.972-5.7-1.88-8.55-2.81-8.07-2.72-15.8-6.01-23.6-9.58-4.04-1.81-8.14-3.45-12.2-5.08-2.54-1.17-4.41-2.53-6.63-4.21-1.86-0.949-3.74-1.86-5.62-2.75-5.91-2.9-11.1-6.39-16.4-10.2-1.45-0.988-2.91-1.97-4.38-2.94-0.722-0.48-1.44-0.959-2.19-1.45-1.85-1.22-3.71-2.44-5.56-3.66-1.07-0.706-2.14-1.41-3.25-2.14-1.5-0.98-1.5-0.98-3.02-1.98-2.16-1.52-3.79-2.95-5.6-4.83-1.7-1.41-3.41-2.8-5.12-4.19-7.19-5.86-14.1-11.6-19.9-18.8-1.65-1.69-3.31-3.35-5-5-1.67-1.67-3.33-3.33-5-5-1.14-1.08-1.14-1.08-2.31-2.19-1.69-1.81-1.69-1.81-1.69-3.81-0.562-0.208-1.12-0.415-1.7-0.629-3.11-1.86-4.94-4.44-7.05-7.31-0.44-0.587-0.879-1.17-1.33-1.78-0.895-1.2-1.79-2.4-2.67-3.6-1.07-1.45-2.16-2.88-3.25-4.32-6.07-8.09-11.4-16.7-16.7-25.3-1.04-1.68-2.1-3.35-3.16-5.01-4.04-6.46-7.17-13.3-10.3-20.2-0.771-1.69-1.57-3.36-2.38-5.03-5.73-12-10.7-24.6-13.9-37.5-0.601-2.43-0.601-2.43-1.59-5.16-1.12-3.47-1.84-6.9-2.52-10.5-0.774-4.02-1.57-8.02-2.5-12-1.12-5-1.86-10-2.57-15.1-0.248-1.77-0.499-3.54-0.754-5.31-0.108-0.77-0.215-1.54-0.326-2.33-0.28-2-0.28-2-1.36-3.92-0.101-1.86-0.138-3.73-0.145-5.59-0.00638-1.17-0.0128-2.34-0.0193-3.55-0.00111-1.27-0.00223-2.55-0.00337-3.86-0.00333-1.31-0.00666-2.62-0.0101-3.96-6e-3 -2.77-0.00784-5.55-0.00725-8.32 1.01e-4 -3.53-0.0135-7.07-0.0308-10.6-0.0139-3.39-0.0132-6.78-0.0144-10.2-0.00719-1.26-0.0144-2.52-0.0218-3.82 0.0173-6.7 0.57-12.6 2.25-19.1 0.294-1.89 0.559-3.79 0.781-5.7 0.18-1.47 0.18-1.47 0.363-2.97 0.238-2.02 0.475-4.04 0.711-6.06 0.615-5.02 1.42-9.49 3.14-14.3 0.488-2.39 0.945-4.79 1.38-7.19 1.03-5.42 2.39-10.5 4.4-15.6 0.99-2.58 1.91-5.17 2.79-7.79 3.54-10.5 7.49-20.5 12.4-30.4 0.681-1.39 1.36-2.78 2.04-4.16 6.63-13.5 13.5-27.1 23-38.8 1.35-1.99 2.68-3.99 4-6 1.51-2.24 3.03-4.46 4.56-6.69 0.386-0.568 0.772-1.14 1.17-1.72 1.91-2.77 3.78-5.33 6.27-7.59 2.78-2.63 5.2-5.2 7.31-8.38 2.47-3.59 5.45-6.21 8.77-9 2.45-2.08 4.68-4.33 6.92-6.62 1.67-1.67 3.33-3.33 5-5 0.767-0.785 1.53-1.57 2.32-2.38 6.64-6.51 14.2-12.2 21.7-17.6 0.509-0.373 1.02-0.745 1.54-1.13 7.29-5.33 14.6-10.4 22.5-14.9 0.574-0.328 1.15-0.656 1.74-0.995 4.06-2.32 8.14-4.61 12.2-6.88 1.9-1.06 3.8-2.13 5.69-3.2 30.9-17.3 67.3-26.9 102-30.9 1.25-0.154 1.25-0.154 2.53-0.312 25-3.05 51.6-3.39 76.3 1.85zm-335 216 1 2zm-5 21 1 2zm-5 32v5h1v-5h-1zm0 54v6h1v-6h-1zm10 55 1 2z" fill="#00FC06"/>
<path transform="translate(123 1271)" d="m0 0c2.21 0.00538 4.42-2.16e-6 6.63-0.00635 16.8-0.00874 33.7 0.634 50 5.14 1.07 0.289 2.15 0.578 3.25 0.875 1.24 0.371 2.47 0.743 3.75 1.12 1.33 0.364 1.33 0.364 2.68 0.734 10.7 3.16 20 8.33 26.4 17.6 0.891 1.66 0.891 1.66 0.891 3.66h2c3 6.5 3 6.5 3 11h2c0.133 0.638 0.266 1.28 0.402 1.93 0.177 0.826 0.353 1.65 0.535 2.5 0.174 0.824 0.348 1.65 0.527 2.5 0.343 2.04 0.343 2.04 1.54 3.07 0.55 2.79 1.05 5.57 1.5 8.38 0.202 1.22 0.202 1.22 0.408 2.47 0.868 5.39 1.53 10.7 1.88 16.2 0.103 2.04 0.103 2.04 1.21 3.97 0.364 3.21 0.433 6.46 0.562 9.69 0.0417 1.04 0.0835 2.07 0.126 3.14 0.765 21.8 0.679 43.7-0.126 65.5-0.0587 1.61-0.0587 1.61-0.119 3.25-0.312 7.18-0.312 7.18-1.44 9.44-0.195 1.39-0.343 2.79-0.465 4.18-0.0767 0.84-0.153 1.68-0.232 2.55-0.119 1.34-0.119 1.34-0.24 2.71-0.891 9.42-1.82 18.6-5.06 27.6-0.483 1.67-0.962 3.33-1.44 5-1.16 3.91-2.58 7.42-4.56 11h-2c-0.33 1.65-0.66 3.3-1 5h-2v3c-3.33 3-3.33 3-6 3v2c-2.91 2.04-4.4 3-8 3v2c-27.1 8.4-51.7 11.3-80.1 11.4-1.64 0.0115-1.64 0.0115-3.31 0.0233-18 0.101-37.3 0.155-54.6-5.4-0.855-0.246-1.71-0.492-2.59-0.746-5.23-1.54-10.3-3.28-15.4-5.25v-2c-2.65-1.08-5.28-2.09-8-3v-2c-0.99-0.33-1.98-0.66-3-1v-2h-2c-3-3.46-3-3.46-3-6h-2c-0.955-2.39-1.91-4.77-2.86-7.16-0.708-1.75-1.44-3.5-2.2-5.23-4.07-9.45-6.03-19.5-6.74-29.7-0.11-1.98-0.11-1.98-1.21-3.89-0.247-2.39-0.426-4.76-0.555-7.16-0.0631-1.17-0.0631-1.17-0.127-2.36-0.561-11.9-0.468-23.8-0.448-35.7 0.00569-3.5 0.00231-7-0.00344-10.5-0.0553-39.6-0.0553-39.6 3.13-57.3 0.244-1.45 0.486-2.91 0.727-4.36 0.257-1.52 0.515-3.05 0.773-4.57 0.118-0.71 0.237-1.42 0.359-2.15 0.72-4.13 1.74-7.97 3.14-11.9 0.485-1.67 0.964-3.33 1.44-5 1.16-3.91 2.58-7.42 4.56-11h2c0.33-1.65 0.66-3.3 1-5h2c0.33-0.99 0.66-1.98 1-3h2v-2c2.56-2.3 3.48-3 7-3v-2c2.22-1.01 4.45-2.01 6.69-3 0.626-0.286 1.25-0.572 1.9-0.867 3.62-1.59 6.46-2.5 10.4-2.13v-2c0.915-0.133 1.83-0.266 2.77-0.402 1.19-0.177 2.38-0.353 3.6-0.535 1.18-0.174 2.37-0.348 3.59-0.527 2.95-0.37 2.95-0.37 5.04-1.54 2.35-0.379 4.7-0.703 7.06-1 1.9-0.247 1.9-0.247 3.85-0.5 12.4-1.34 24.9-1.67 37.4-1.63zm-42.4 43.1v2c-2.64 0.33-5.28 0.66-8 1v2h-3v2c-0.598 0.206-1.2 0.412-1.81 0.625-4.61 2.9-5.51 8.12-6.81 13.1-1.57 7.1-1.9 14.1-2.16 21.4-0.211 3.87-0.211 3.87-0.716 5.65-0.711 3.19-0.634 6.35-0.624 9.6-0.00175 0.737-0.0035 1.47-0.00531 2.23-0.00439 2.43-0.00149 4.86 0.00189 7.29-6.74e-4 1.69-0.00164 3.38-0.0029 5.07-0.00147 3.54 6.67e-4 7.08 0.00534 10.6 0.0057 4.54 0.00241 9.08-0.00357 13.6-0.00361 3.49-0.00246 6.98 1.28e-4 10.5 6.68e-4 1.67-1.53e-4 3.35-0.00248 5.02-0.00254 2.34 0.00133 4.68 0.0069 7.02-0.00202 0.694-0.00405 1.39-0.00613 2.1 0.0133 3 0.177 5.28 1.14 8.15 0.104 1.89 0.183 3.79 0.25 5.69 0.748 9.83 2.53 20.9 9.81 28.1 5.17 3.91 10.7 5.1 16.9 6.19 0.686 0.16 1.37 0.319 2.08 0.484 6.78 1.54 13.2 1.81 20.2 1.78 1.14 0.00191 2.28 0.00383 3.46 0.0058 2.4 0.00135 4.8-0.00228 7.19-0.0107 3.65-0.0107 7.3-7.05e-5 11 0.0127 2.34-0.00132 4.68-0.00388 7.02-0.00781 1.62 0.00607 1.62 0.00607 3.28 0.0123 6.22-0.0382 11.8-0.654 17.8-2.28 0.919-0.211 1.84-0.423 2.79-0.641 5.94-1.59 10.8-3.96 15.2-8.36v-2h2c3.87-12 6.17-22.7 6.66-35.3 0.047-1.19 0.047-1.19 0.095-2.39 0.0359-1.06 0.0359-1.06 0.0725-2.14 0.174-2.15 0.174-2.15 0.676-4.42 0.53-2.91 0.624-5.59 0.627-8.54 0.00473-1.72 0.00473-1.72 0.00955-3.47-0.00202-1.23-0.00405-2.45-0.00613-3.72 9.57e-4 -1.27 0.00191-2.54 0.0029-3.84 6.8e-4 -2.68-6.58e-4 -5.36-0.00534-8.04-0.0057-3.43-0.00241-6.85 0.00357-10.3 0.00449-3.28 0.00134-6.56-0.00113-9.84 0.00304-1.84 0.00304-1.84 0.00613-3.72-0.00315-1.14-0.0063-2.29-0.00955-3.47-7.96e-4 -1-0.00159-2.01-0.00241-3.04-0.124-2.7-0.544-5.14-1.13-7.77-0.181-1.72-0.335-3.44-0.465-5.17-0.078-0.976-0.156-1.95-0.236-2.96-0.156-2.02-0.31-4.04-0.461-6.06-0.516-6.39-1.43-12.6-2.84-18.8h-2c0.0928-1.14 0.0928-1.14 0.188-2.31 0.0575-2.71 0.0575-2.71-1.56-4.5-1.56-1.38-1.56-1.38-3.62-1.19v-2h-3v-2c-26.8-10.7-62.1-8.01-90-3z" fill="#000102"/>
<path transform="translate(963 1271)" d="m0 0c0.666-0.00259 1.33-0.00518 2.02-0.00784 32.6-0.0998 32.6-0.0998 47.7 5.13 1.62 0.463 3.25 0.922 4.88 1.38 5.88 1.75 11 4.23 16.1 7.62v2c0.588 0.236 1.18 0.472 1.78 0.715 6.59 3.82 10.9 13.2 13.2 20.3 0.629 2.67 1.16 5.33 1.61 8.03 0.204 1.96 0.204 1.96 1.39 2.97 1.16 8.37 1.13 16.8 1.06 25.2-0.0206 3.88-0.0412 7.76-0.0625 11.8h-47c-0.33-6.93-0.66-13.9-1-21-2.46-7.56-2.46-7.56-6-14v-2h-3v-2c-1.58-0.467-3.16-0.923-4.75-1.38-0.882-0.255-1.76-0.51-2.67-0.773-10.9-2.6-21.4-3.2-32.6-3.17-2.59 0.00314-5.19-0.0203-7.78-0.0457-13.4-0.0509-26.4 1.06-39.2 5.36h-3v2h-3v2h-2v3h-2c-0.65 2.52-1.3 5.04-1.94 7.56-0.274 1.06-0.274 1.06-0.553 2.13-10.3 40.6-6.79 97.8 2.49 138h2c1.62 1.38 1.62 1.38 3 3v2c11.7 5.06 23.7 7.32 36.3 7.27 1.57 0.00287 1.57 0.00287 3.18 0.0058 2.21 0.00135 4.41-0.00228 6.62-0.0107 3.35-0.0107 6.7-7.26e-5 10.1 0.0127 2.15-0.00132 4.31-0.00388 6.46-0.00781 1.48 0.00607 1.48 0.00607 3 0.0123 9.4-0.0625 17.7-1.74 26.3-5.28 1.42-0.433 1.42-0.433 2.88-0.875 2.94-1.55 3.15-2.99 4.12-6.12 0.495-1.09 0.99-2.19 1.5-3.31 4.56-11.2 3.89-19.9 4.5-32.7h48c-0.33 5.94-0.66 11.9-1 18-0.186 4.3-0.186 4.3-0.375 8.69-0.866 14.2-3.41 29.4-11.6 41.3h-2c-0.268 0.639-0.536 1.28-0.812 1.94-1.19 2.06-1.19 2.06-4.19 3.06-0.33 0.99-0.66 1.98-1 3-6.07 4.02-13 6.13-20 8-1.54 0.485-1.54 0.485-3.11 0.98-19 5.35-40 4.34-59.5 4.39-1.16 0.00767-2.31 0.0153-3.5 0.0233-39.5 0.209-39.5 0.209-56.9-5.4-0.866-0.246-1.73-0.492-2.62-0.746-4.97-1.45-9.66-3.1-14.4-5.25v-2c-1.65-0.33-3.3-0.66-5-1v-2h-3v-2c-0.599-0.263-1.2-0.526-1.82-0.797-8.14-4.48-10.7-14.9-13.2-23.2-2.01-7.26-3.33-14.3-3.79-21.9-0.0868-2.19-0.0868-2.19-1.21-4.14-0.212-2.12-0.369-4.24-0.5-6.36-0.0825-1.28-0.165-2.56-0.25-3.88-0.0837-1.36-0.167-2.71-0.25-4.07-0.163-2.64-0.33-5.28-0.5-7.93-0.0722-1.18-0.144-2.35-0.219-3.56-0.196-3.06-0.196-3.06-0.79-5.43-0.611-3.45-0.639-6.82-0.637-10.3-0.00336-0.742-0.00672-1.48-0.0102-2.25-0.00948-2.45-0.0115-4.89-0.0125-7.34-0.00322-1.71-0.00658-3.43-0.0101-5.14-0.00598-3.59-0.00784-7.18-0.00725-10.8 1.01e-4 -4.57-0.0135-9.15-0.0308-13.7-0.0112-3.54-0.0131-7.08-0.0126-10.6-0.00117-1.68-0.00554-3.37-0.0133-5.05-0.0394-9.4 0.285-18.3 2.24-27.6 0.369-1.94 0.369-1.94 0.746-3.92 1.38-6.54 2.98-12.8 5.25-19.1h2c0.124-0.722 0.247-1.44 0.375-2.19 0.615-2.77 1.51-5.21 2.62-7.81h2c0.186-0.701 0.371-1.4 0.562-2.12 1.96-3.92 4.84-6.41 8.44-8.88h2v-2h3v-2c5.94-2.49 11.9-4.65 18.1-6.39 1.92-0.445 1.92-0.445 2.93-1.61 2.14-0.373 4.29-0.699 6.44-1 4.43-0.521 4.43-0.521 8.56-2 2.12-0.206 4.25-0.366 6.38-0.5 4.34-0.232 4.34-0.232 8.6-0.998 12-2.98 26-1.61 38.3-1.63z" fill="#000102"/>
<path transform="translate(1064,1274)" d="m0 0h50c4 11 4 11 4 16h2c0.381 1.47 0.381 1.47 0.77 2.96 2.23 8.59 2.23 8.59 4.92 17 1.28 3.67 1.9 7.14 2.31 11h2c0.266 0.953 0.531 1.91 0.805 2.89 0.353 1.25 0.706 2.51 1.07 3.8 0.348 1.24 0.696 2.48 1.05 3.76 0.983 3.46 0.983 3.46 2.2 6.33 1 2.54 1.03 4.51 0.875 7.22h2c0.242 0.967 0.485 1.93 0.734 2.93 1.71 6.69 3.54 13.1 6.26 19.5 1.69 4.37 2.85 8.89 4.08 13.4 0.859 3.16 0.859 3.16 2.04 5.94 1.01 2.56 1.05 4.53 0.891 7.26h2c0.266 1.01 0.531 2.03 0.805 3.07 0.357 1.35 0.713 2.7 1.07 4.05 0.261 0.998 0.261 0.998 0.527 2.02 1.06 4.01 2.26 7.93 3.6 11.9 0.507 1.66 1.01 3.33 1.5 5 0.798 2.68 1.61 5.34 2.5 8 3.37 10.1 5.88 20.4 8.39 30.7 1.46 5.91 2.97 11.7 5.01 17.5 0.751 2.23 1.23 4.46 1.6 6.78h2c0.182-0.762 0.364-1.52 0.551-2.31 1.35-5.53 2.8-11 4.64-16.3 4.3-12.6 7.51-25.5 10.8-38.4h2c0.116-1.15 0.232-2.31 0.352-3.5 0.546-4.35 1.66-8.34 3.02-12.5 0.224-0.701 0.448-1.4 0.679-2.12 1.13-3.49 2.31-6.95 3.63-10.4 1.43-3.81 2.39-7.54 3.31-11.5h2c0.116-1.15 0.232-2.31 0.352-3.5 0.548-4.37 1.66-8.39 3.02-12.6 0.209-0.668 0.418-1.34 0.633-2.03 1.03-3.22 2.15-6.29 3.5-9.4 1.63-3.85 2.8-7.69 3.93-11.7 1.76-6.16 3.66-12.2 5.77-18.3 0.789-2.49 1.33-4.95 1.8-7.52h2c0.186-1.48 0.186-1.48 0.375-3 0.577-4.09 1.57-8.01 2.62-12h2c0.0825-1.09 0.165-2.19 0.25-3.31 0.695-5.58 2.77-10.4 4.75-15.7 1.32-4.29 2.64-8.58 4-13h49c0 4.44-0.547 6.85-2.15 10.9-1.41 3.54-2.59 7.15-3.79 10.8-0.261 0.781-0.522 1.56-0.791 2.37-1.59 4.81-3.05 9.63-4.4 14.5-1.09 3.93-2.28 7.68-3.88 11.4-1.73 4.1-2.91 8.26-4 12.6-1.31 5.16-2.91 10-5 14.9-1.68 4.35-2.82 8.84-4.06 13.3-0.754 2.61-1.58 5.11-2.57 7.64-1.46 3.86-2.44 7.61-3.38 11.6h-2c-0.115 0.98-0.229 1.96-0.348 2.97-0.617 4.31-1.81 8.38-3.09 12.5-0.436 1.45-0.873 2.9-1.31 4.34-0.21 0.692-0.42 1.38-0.636 2.1-0.903 3.01-1.76 6.03-2.62 9.06h-2c-0.0825 1.28-0.165 2.56-0.25 3.88-0.497 4.51-1.85 8.11-3.64 12.2-1.79 4.64-2.9 9.45-4.08 14.3-1.05 3.71-2.5 7.08-4.03 10.6-0.449 1.63-0.856 3.28-1.19 4.94-0.159 0.772-0.317 1.54-0.48 2.34-0.11 0.568-0.219 1.14-0.332 1.72h-2c-0.116 1.15-0.232 2.31-0.352 3.5-0.546 4.35-1.66 8.34-3.02 12.5-0.209 0.66-0.418 1.32-0.633 2-1.08 3.36-2.24 6.68-3.5 9.97-1.82 4.77-3.16 9.66-4.51 14.6-1.1 3.88-2.4 7.53-4.07 11.2-0.359 0.796-0.718 1.59-1.09 2.41-0.273 0.6-0.546 1.2-0.827 1.82-9.35 0.0694-18.7 0.123-28.1 0.155-4.34 0.0157-8.69 0.0369-13 0.0709-4.19 0.0325-8.38 0.0505-12.6 0.0583-1.6 0.00556-3.2 0.0164-4.8 0.0326-2.24 0.0217-4.47 0.0248-6.71 0.0234-1.27 0.00666-2.55 0.0133-3.86 0.0202-0.981-0.119-1.96-0.238-2.97-0.361-2.26-3.39-2.95-6.18-3.94-10.1-1.25-4.85-2.57-9.63-4.21-14.4-1.41-4.16-2.68-8.37-3.96-12.6-1.04-3.35-2.14-6.65-3.4-9.93-1.5-3.95-2.71-7.94-3.87-12-1.7-5.87-3.43-11.7-5.25-17.6-0.208-0.67-0.417-1.34-0.631-2.03-1.05-3.35-2.18-6.64-3.49-9.91-1.41-3.93-1.88-7.35-2.25-11.5h-2c-0.508-1.73-1.01-3.46-1.5-5.19-0.418-1.44-0.418-1.44-0.844-2.92-0.623-2.75-0.779-5.09-0.656-7.89h-2c-0.164-0.818-0.164-0.818-0.332-1.65-1.45-6.88-3.36-13.4-6.23-19.8-1.39-3.39-2.17-6.5-2.81-10.1-0.685-2.64-1.74-5.01-2.84-7.5-1.35-3.28-2.27-6.68-3.22-10.1-1.46-5.1-2.97-10.2-4.69-15.2-1.59-4.67-2.94-9.37-4.16-14.2-0.68-2.53-0.68-2.53-1.79-5.11-1.02-2.61-1.08-4.58-0.922-7.36h-2c-0.254-0.978-0.508-1.96-0.77-2.96-1.63-6.23-3.26-12.4-5.38-18.5-1.47-4.35-2.8-8.74-4.14-13.1-1.15-3.78-1.15-3.78-2.71-7.41z" fill="#000102"/>
<path transform="translate(412 1359)" d="m0 0c3.25 2.75 6.12 5.55 8.45 9.13v3h2c13.9 31.4 12.1 70.4 8 104-0.33 0.33-0.66 0.66-1 1-0.28 1.37-0.522 2.75-0.75 4.12-1.36 7.18-3.84 14-6.25 20.9h-2c-0.104 0.583-0.209 1.17-0.316 1.77-0.787 2.57-1.86 3.97-3.62 5.98-0.525 0.614-1.05 1.23-1.59 1.86-1.47 1.39-1.47 1.39-3.47 1.39v2c-4.62 3.85-9.05 5.63-15 6v2c-10.3 2.78-20.4 3.33-31.1 3.38-1.25 0.0135-2.5 0.0271-3.79 0.041-13-0.0614-24.5-2.44-36.1-8.42v-2c-1.32-0.33-2.64-0.66-4-1v-2h-2v-2c-0.99-0.33-1.98-0.66-3-1-1.19-2.56-1.19-2.56-2-5h-2c-0.99-1.32-1.98-2.64-3-4-0.33 32.7-0.66 65.3-1 99h-42c-1-1-1-1-1.12-2.72 3.8e-4 -0.756 7.59e-4 -1.51 0.00115-2.29-0.00199-0.869-0.00398-1.74-0.00603-2.63 0.00291-0.966 0.00583-1.93 0.00883-2.93-8.54e-4 -1.02-0.00171-2.04-0.00259-3.08-0.00166-3.44 0.00387-6.88 0.00932-10.3 2.82e-4 -2.45 1.24e-4 -4.91-4.43e-4 -7.36-2.28e-4 -5.3 0.00262-10.6 0.00824-15.9 0.00811-7.66 0.0107-15.3 0.012-23 0.00219-12.4 0.00885-24.8 0.0183-37.3 0.00917-12.1 0.0163-24.1 0.0205-36.2 2.63e-4 -0.743 5.25e-4 -1.49 7.96e-4 -2.25 0.0013-3.73 0.00257-7.46 0.00381-11.2 0.0104-31 0.0283-61.9 0.0503-92.9h43c-1 17-1 17-2 24 0.454-0.495 0.908-0.99 1.38-1.5 1.62-1.5 1.62-1.5 3.62-1.5 0.248-0.557 0.495-1.11 0.75-1.69 2.55-4.71 5.85-8.27 10.2-11.3h3v-2c2.45-0.968 4.91-1.92 7.38-2.88 0.679-0.269 1.36-0.539 2.06-0.816 23.7-9.06 56.3-7.72 77.1 7.56zm-80.5 20.1v2c-1.55 0.0928-1.55 0.0928-3.12 0.188-4.8 1.01-6.45 2.39-9.88 5.81v2h-2c-13.9 19.6-8.9 57.8-5.38 79.9 1.32 5.88 3.3 11.5 7.38 16.1h2c0.33 0.99 0.66 1.98 1 3h3v2c10.6 3.94 20.8 5.79 32 4 1.09-0.148 2.18-0.296 3.3-0.449 5.46-0.772 10.5-1.69 15.7-3.55v-2c0.598-0.0825 1.2-0.165 1.81-0.25 2.84-0.973 3.68-2.19 5.19-4.75v-3h2c5.1-13.4 5.33-27.1 5.26-41.3-0.0107-2.78-3.6e-5 -5.55 0.0127-8.32 0.0109-13.4-0.956-25.6-5.27-38.4h-2c-0.103-0.597-0.206-1.19-0.312-1.81-1.23-3.93-4.35-5.97-7.69-8.19-13.1-6.21-29-4.26-43-3z" fill="#000102"/>
<path transform="translate(538 1347)" d="m0 0c0.828 0.00399 1.66 0.00798 2.51 0.0121 31.5 0.178 31.5 0.178 44.8 6.5 1.94 0.896 3.79 1.41 5.88 1.87v2c0.722 0.247 1.44 0.495 2.19 0.75 3.09 1.37 5.32 2.97 7.81 5.25v2c0.99 0.33 1.98 0.66 3 1 2.08 2.92 3 4.38 3 8h2c0.277 0.999 0.554 2 0.84 3.03 0.366 1.3 0.732 2.61 1.1 3.91 0.274 0.989 0.274 0.989 0.553 2 0.736 3.3 0.736 3.3 2.51 6.06 2.55 12.7 3.36 25.4 3.75 38.2 0.023 0.724 0.0459 1.45 0.0696 2.19 0.272 8.97 0.272 8.97 0.18 12.6-1 1-1 1-2.93 1.12-0.855-9.22e-4 -1.71-0.00184-2.59-0.00279-1.47 0.00206-1.47 0.00206-2.96 0.00417-1.08-0.0036-2.16-0.00719-3.28-0.0109-1.7 2.19e-4 -1.7 2.19e-4 -3.43 4.43e-4 -3.76-7e-4 -7.52-0.00849-11.3-0.0163-2.6-0.00186-5.2-0.00329-7.8-0.00429-6.16-0.00344-12.3-0.0113-18.5-0.0213-7.01-0.0112-14-0.0167-21-0.0217-14.4-0.0105-28.8-0.0281-43.2-0.0503 0.135 3.51 0.279 7.03 0.426 10.5 0.0377 0.988 0.0755 1.98 0.114 2.99 0.466 10.9 1.36 22.3 9.46 30.5 6.54 4.77 13.1 5.87 21 6 0.736 0.019 1.47 0.038 2.23 0.0576 10.5 0.254 20.5 0.0391 30.8-2.06 1.41-0.28 1.41-0.28 2.85-0.566 0.71-0.143 1.42-0.286 2.15-0.434v-2h2c0.205-0.638 0.41-1.28 0.621-1.93 0.269-0.826 0.539-1.65 0.816-2.5 0.267-0.824 0.534-1.65 0.809-2.5 0.754-2.07 0.754-2.07 1.75-3.07 0.207-1.49 0.367-3 0.5-4.5 0.389-4.39 0.389-4.39 1.5-5.5 2.88-0.0887 5.74-0.115 8.63-0.0977 1.3 0.00212 1.3 0.00212 2.62 0.00429 2.77 0.00562 5.54 0.0182 8.31 0.0309 1.87 0.00501 3.75 0.00958 5.62 0.0137 4.6 0.0111 9.21 0.0283 13.8 0.0488 0.0323 2.54 0.0557 5.09 0.0742 7.63 0.00995 0.713 0.0199 1.43 0.0302 2.16 0.0541 9.93-2.87 17.8-8.1 26.2h-2c-0.33 0.99-0.66 1.98-1 3h-2v2c-10.3 8-10.3 8-16 8v2c-2.39 0.633-4.79 1.26-7.19 1.88-0.654 0.174-1.31 0.348-1.98 0.527-13 3.32-25.6 3.97-38.9 3.91-0.862-0.00116-1.72-0.00232-2.61-0.00351-18.3-0.0487-35.6-1.12-52.4-9-0.94-0.437-1.88-0.874-2.85-1.32-0.69-0.326-1.38-0.652-2.09-0.988v-2c-0.864-0.0889-0.864-0.0889-1.75-0.18-5.3-1.93-8.79-9.09-11.4-13.9-0.706-1.61-1.3-3.27-1.89-4.93-0.321-0.901-0.642-1.8-0.973-2.73-3.09-9.84-4.31-20.1-4.82-30.4-0.093-2.72-0.093-2.72-0.714-4.56-0.741-3.47-0.66-6.94-0.665-10.5-0.00333-0.8-0.00666-1.6-0.0101-2.42-0.00506-1.7-0.00741-3.4-0.00725-5.09-0.00215-2.54-0.0202-5.08-0.0393-7.62-0.0465-13.3 1.09-26.2 3.85-39.2 0.26-1.25 0.521-2.5 0.789-3.78 0.193-0.897 0.387-1.79 0.586-2.72h2c0.0619-0.784 0.124-1.57 0.188-2.38 1.12-4.98 3.42-9.15 5.81-13.6h2c0.248-0.578 0.495-1.15 0.75-1.75 5.23-9.42 16.4-12.8 26.1-15.7 12.5-3.42 25-4.09 38-3.96zm-26.8 35.4v2h-3c-0.66 1.65-1.32 3.3-2 5h-2c-4.23 9.79-3 17.7-3 29h76c1.26-16 1.26-16-4-31-0.99-0.33-1.98-0.66-3-1v-2c-14.2-9.99-43.6-8.7-59-2z" fill="#000102"/>
<path transform="translate(789,1355)" d="m0 0v2c0.722 0.247 1.44 0.495 2.19 0.75 8.26 3.67 13.3 11.7 16.9 19.7 0.76 2.17 1.33 4.33 1.89 6.57 0.178 0.712 0.356 1.42 0.539 2.16 1.57 6.98 1.73 13.7 1.69 20.8 2.92e-4 1.26 5.84e-4 2.52 8.85e-4 3.82 5.69e-4 3.42-0.0111 6.85-0.0251 10.3-0.0126 3.59-0.0137 7.18-0.0161 10.8-0.00619 6.78-0.0226 13.6-0.0427 20.3-0.0224 7.73-0.0334 15.5-0.0434 23.2-0.0209 15.9-0.0575 31.8-0.101 47.6h-40c-0.0251-3.54-0.0501-7.08-0.0759-10.7-0.0836-11.7-0.172-23.5-0.263-35.2-0.0551-7.11-0.109-14.2-0.158-21.3-0.0431-6.2-0.0894-12.4-0.14-18.6-0.0264-3.28-0.0508-6.56-0.0722-9.84-0.0243-3.67-0.0543-7.35-0.0856-11-0.00576-1.07-0.0115-2.14-0.0174-3.24-0.0678-7.05-0.511-14-1.19-21h-2c-0.392-0.722-0.784-1.44-1.19-2.19-3.15-4.89-8.23-8.22-13.8-9.81-6.31-1.08-12.6-1.2-19-1-0.877 0.0168-1.75 0.0335-2.66 0.0508-9.52 0.479-18.9 3.6-25.9 10.3-8.2 9.28-9.91 20.2-9.89 32.3-0.0102 1.1-0.0204 2.21-0.0309 3.34-0.0299 3.61-0.0394 7.22-0.0485 10.8-0.0169 2.52-0.035 5.04-0.0544 7.55-0.0425 5.92-0.0721 11.8-0.0953 17.8-0.0298 7.42-0.08 14.8-0.13 22.2-0.0859 13.2-0.152 26.4-0.209 39.6h-40v-174h40c-0.33 3.96-0.66 7.92-1 12-0.199 3.08-0.392 6.17-0.562 9.25-0.0648 1.14-0.0648 1.14-0.131 2.29-0.104 1.82-0.205 3.64-0.307 5.46h2v-2h2c0.0993-0.732 0.199-1.46 0.301-2.22 1.75-6.95 8.03-12.7 13.7-16.8h2v-2c23.1-11.7 52.9-12.1 76 0z" fill="#000102"/>
<path transform="translate(1105,872)" d="m0 0h2c1.25 10 2.43 19.9 2 30-0.0529 1.26-0.106 2.52-0.16 3.82-0.345 6.4-0.917 12.1-2.84 18.2h-1c0.0722-1.29 0.144-2.59 0.219-3.92 0.874-16.1 0.735-32-0.219-48.1z" fill="#000102"/>
<path transform="translate(1098,941)" d="m0 0h2c-0.458 3.47-0.891 6.67-2 10h-2c-0.182 0.638-0.364 1.28-0.551 1.93-0.251 0.826-0.503 1.65-0.762 2.5-0.244 0.824-0.487 1.65-0.738 2.5-0.313 0.682-0.626 1.36-0.949 2.07-0.99 0.33-1.98 0.66-3 1 1.67-4.34 3.71-8.39 5.88-12.5 1.13-2.51 1.69-4.79 2.12-7.5z" fill="#000102"/>
<path transform="translate(1084,730)" d="m0 0c1 3 1 3 0.18 4.98-0.431 0.728-0.861 1.46-1.3 2.21-0.46 0.786-0.92 1.57-1.39 2.38-2.13 3.5-4.27 6.98-6.48 10.4-1-3-1-3 0.582-6.25 0.733-1.26 1.48-2.51 2.23-3.75 0.369-0.629 0.739-1.26 1.12-1.91 1.62-2.75 3.3-5.44 5.07-8.09z" fill="#000102"/>
<path transform="translate(1100,855)" d="m0 0h2c3.44 11.5 3.44 11.5 3 17-2.28-2.28-2.72-3.75-3.62-6.81-0.26-0.852-0.521-1.7-0.789-2.58-0.59-2.63-0.692-4.92-0.586-7.61z" fill="#000102"/>
<path transform="translate(1103,925)" d="m0 0h2c-0.142 1.58-0.289 3.17-0.438 4.75-0.0812 0.882-0.162 1.76-0.246 2.67-0.561 4.57-0.561 4.57-1.32 6.58-0.99 0.33-1.98 0.66-3 1 0.778-5.06 1.86-10 3-15z" fill="#000102"/>
<path transform="translate(1089,961)" d="m0 0c1 3 1 3 0.0625 5.19-0.526 0.897-0.526 0.897-1.06 1.81h-2c-0.402 1.21-0.402 1.21-0.812 2.44-0.588 1.27-0.588 1.27-1.19 2.56-0.99 0.33-1.98 0.66-3 1 1.47-3.11 3.2-5.9 5.12-8.75 0.539-0.799 1.08-1.6 1.63-2.42 0.615-0.905 0.615-0.905 1.24-1.83z" fill="#000102"/>
<path transform="translate(660,1)" d="m0 0h11v1h-11v-1z" fill="#FB0302"/>
<path transform="translate(491,562)" d="m0 0 4 1z" fill="#000102"/>
<path transform="translate(663,184)" d="m0 0 4 1z" fill="#000102"/>
<path transform="translate(793,561)" d="m0 0 2 2h-2v-2z" fill="#000102"/>
<path transform="translate(355,1195)" d="m0 0 2 1z" fill="#000102"/>
<path transform="translate(683,189)" d="m0 0 2 1z" fill="#000102"/>
</svg>
