<svg xmlns="http://www.w3.org/2000/svg" x="0px" y="0px" width="50" height="50" viewBox="0,0,256,256">
<defs><linearGradient x1="6.674" y1="10.224" x2="30.141" y2="33.81" gradientUnits="userSpaceOnUse" id="color-1_jXuZmZPUKCPS_gr1"><stop offset="0" stop-color="#9d2f90"></stop><stop offset="0.314" stop-color="#982e8d"></stop><stop offset="0.666" stop-color="#8b2c83"></stop><stop offset="1" stop-color="#772874"></stop></linearGradient><linearGradient x1="16.835" y1="11.995" x2="39.082" y2="38.287" gradientUnits="userSpaceOnUse" id="color-2_jXuZmZPUKCPS_gr2"><stop offset="0" stop-color="#e286c5"></stop><stop offset="0.413" stop-color="#e081c3"></stop><stop offset="0.878" stop-color="#da74be"></stop><stop offset="1" stop-color="#d86fbc"></stop></linearGradient><linearGradient x1="27.41" y1="24" x2="45.997" y2="24" gradientUnits="userSpaceOnUse" id="color-3_jXuZmZPUKCPS_gr3"><stop offset="0" stop-color="#f2a1c7"></stop><stop offset="0.62" stop-color="#ed9ec8"></stop><stop offset="1" stop-color="#e799ca"></stop></linearGradient></defs><g transform="translate(33.28,33.28) scale(0.74,0.74)"><g fill="none" fill-rule="nonzero" stroke="none" stroke-width="1" stroke-linecap="butt" stroke-linejoin="miter" stroke-miterlimit="10" stroke-dasharray="" stroke-dashoffset="0" font-family="none" font-weight="none" font-size="none" text-anchor="none" style="mix-blend-mode: normal"><g transform="translate(3.14233,-29.816) scale(5.33333,5.33333)"><path d="M18.926,44.317l-16.436,-19.087c-0.62,-0.72 -0.62,-1.791 0,-2.511l16.436,-19.086c0.755,-0.877 2.104,-0.877 2.859,0l16.435,19.086c0.62,0.72 0.62,1.791 0,2.511l-16.435,19.087c-0.755,0.877 -2.104,0.877 -2.859,0z" fill="url(#color-1_jXuZmZPUKCPS_gr1)"></path><path d="M38.22,25.23c0.62,-0.72 0.62,-1.791 0,-2.511l-15.726,-18.264l-5.812,6.215c-1.199,1.344 -1.185,3.364 0.037,4.702l7.696,8.265c0.176,0.193 0.176,0.482 0,0.674l-7.641,8.36c-1.215,1.33 -1.221,3.353 -0.008,4.711l5.694,6.149z" fill="#000000" opacity="0.05"></path><path d="M38.22,25.23c0.62,-0.72 0.62,-1.791 0,-2.511l-15.398,-17.883l-5.767,6.167c-1.028,1.152 -1.017,2.882 0.03,4.028l7.699,8.269c0.351,0.385 0.352,0.965 0,1.349l-7.641,8.36c-1.042,1.141 -1.048,2.872 -0.01,4.035l5.656,6.108z" fill="#000000" opacity="0.07"></path><path d="M38.22,25.23c0.62,-0.72 0.62,-1.791 0,-2.511l-15.07,-17.502l-5.722,6.118c-0.856,0.96 -0.848,2.4 0.022,3.354l7.703,8.273c0.526,0.577 0.526,1.447 0,2.023l-7.641,8.36c-0.868,0.95 -0.876,2.391 -0.013,3.357l5.617,6.066z" fill="#000000" opacity="0.09"></path><path d="M45.518,22.745l-17.261,-19.087c-0.79,-0.885 -2.174,-0.885 -2.964,0l-7.492,8.011c-0.683,0.765 -0.676,1.923 0.015,2.68l7.707,8.277c0.697,0.764 0.697,1.933 0,2.697l-7.641,8.36c-0.692,0.757 -0.698,1.915 -0.015,2.68l7.389,7.979c0.79,0.885 2.174,0.885 2.964,0l17.299,-19.087c0.637,-0.715 0.637,-1.795 -0.001,-2.51z" fill="url(#color-2_jXuZmZPUKCPS_gr2)"></path><path d="M35.322,33.484l-7.384,-8.103c-0.704,-0.773 -0.704,-1.989 0,-2.762l7.384,-8.103c0.752,-0.825 2.01,-0.825 2.762,0l7.384,8.103c0.704,0.773 0.704,1.989 0,2.762l-7.384,8.103c-0.752,0.826 -2.009,0.826 -2.762,0z" fill="url(#color-3_jXuZmZPUKCPS_gr3)" opacity="0.61"></path><path d="M45.518,22.745l-17.261,-19.087c-0.79,-0.885 -2.174,-0.885 -2.964,0l-7.492,8.011c-0.683,0.765 -0.676,1.923 0.015,2.68l7.707,8.277c0.697,0.764 0.697,1.933 0,2.697l-7.641,8.36c-0.692,0.757 -0.698,1.915 -0.015,2.68l7.389,7.979c0.79,0.885 2.174,0.885 2.964,0l17.299,-19.087c0.637,-0.715 0.637,-1.795 -0.001,-2.51z" fill="none"></path></g></g><g fill="#000000" fill-rule="nonzero" stroke="none" stroke-width="1" stroke-linecap="butt" stroke-linejoin="miter" stroke-miterlimit="10" stroke-dasharray="" stroke-dashoffset="0" font-family="none" font-weight="none" font-size="none" text-anchor="none" style="mix-blend-mode: normal"><g><path d="M-15.485,255.37667h-11.61v19.29h-6.5v-49.29h18.18c5.39333,0 9.62,1.37667 12.68,4.13c3.06,2.75333 4.59,6.4 4.59,10.94v0c0,4.78 -1.49667,8.46333 -4.49,11.05c-2.98667,2.58667 -7.27,3.88 -12.85,3.88zM-27.095,230.72667v19.33h11.68c3.47333,0 6.13667,-0.81667 7.99,-2.45c1.85333,-1.64 2.78,-4.00667 2.78,-7.1v0c0,-2.93333 -0.92667,-5.28 -2.78,-7.04c-1.85333,-1.76 -4.39333,-2.67333 -7.62,-2.74v0zM7.065,256.45667v-0.44c0,-3.58667 0.70667,-6.81333 2.12,-9.68c1.40667,-2.86667 3.37,-5.08 5.89,-6.64c2.51333,-1.55333 5.38333,-2.33 8.61,-2.33v0c4.98667,0 9.02333,1.72667 12.11,5.18c3.08,3.45333 4.62,8.04333 4.62,13.77v0v0.44c0,3.56667 -0.68333,6.76667 -2.05,9.6c-1.36667,2.83333 -3.32,5.04 -5.86,6.62c-2.54,1.58 -5.45667,2.37 -8.75,2.37v0c-4.96667,0 -8.99,-1.72667 -12.07,-5.18c-3.08,-3.45333 -4.62,-8.02333 -4.62,-13.71zM13.365,256.75667v0c0,4.06667 0.94,7.33 2.82,9.79c1.88667,2.46 4.41,3.69 7.57,3.69v0c3.18,0 5.70667,-1.24667 7.58,-3.74c1.87333,-2.49333 2.81,-5.98667 2.81,-10.48v0c0,-4.02 -0.95333,-7.27667 -2.86,-9.77c-1.90667,-2.49333 -4.44,-3.74 -7.6,-3.74v0c-3.09333,0 -5.58667,1.23 -7.48,3.69c-1.89333,2.46 -2.84,5.98 -2.84,10.56zM71.995,238.03667l8.7,28l7.04,-28h6.27l-10.67,36.63h-5.07l-8.91,-27.76l-8.66,27.76h-5.08l-10.63,-36.63h6.23l7.21,27.43l8.53,-27.43zM115.565,275.34667v0c-4.96667,0 -9.00667,-1.63 -12.12,-4.89c-3.11333,-3.26 -4.67,-7.62333 -4.67,-13.09v0v-1.15c0,-3.63333 0.69333,-6.87667 2.08,-9.73c1.39333,-2.85333 3.33667,-5.08667 5.83,-6.7c2.49333,-1.61333 5.19333,-2.42 8.1,-2.42v0c4.76667,0 8.47,1.56667 11.11,4.7c2.64,3.14 3.96,7.63333 3.96,13.48v0v2.6h-24.82c0.09333,3.61333 1.15,6.53 3.17,8.75c2.02,2.22667 4.58667,3.34 7.7,3.34v0c2.21333,0 4.08667,-0.45333 5.62,-1.36c1.53333,-0.9 2.87667,-2.09333 4.03,-3.58v0l3.83,2.97c-3.07333,4.72 -7.68,7.08 -13.82,7.08zM114.785,242.50667v0c-2.52667,0 -4.64667,0.92 -6.36,2.76c-1.71333,1.84 -2.77333,4.42 -3.18,7.74v0h18.35v-0.48c-0.18,-3.18 -1.04,-5.64333 -2.58,-7.39c-1.53333,-1.75333 -3.61,-2.63 -6.23,-2.63zM154.805,237.83667v5.82c-0.94667,-0.15333 -1.97333,-0.23 -3.08,-0.23v0c-4.10667,0 -6.89333,1.74667 -8.36,5.24v0v26h-6.27v-36.63h6.1l0.1,4.23c2.05333,-3.26667 4.96333,-4.9 8.73,-4.9v0c1.22,0 2.14667,0.15667 2.78,0.47zM210.635,274.66667l-4.71,-12.86h-20.65l-4.64,12.86h-6.7l18.82,-49.29h5.69l18.85,49.29zM195.595,233.40667l-8.36,23.05h16.76zM253.895,256.18667v0.57c0,5.58 -1.27333,10.07333 -3.82,13.48c-2.55333,3.40667 -6.00667,5.11 -10.36,5.11v0c-4.44667,0 -7.94667,-1.41 -10.5,-4.23v0v17.64h-6.26v-50.72h5.72l0.3,4.07c2.55333,-3.16 6.09667,-4.74 10.63,-4.74v0c4.40667,0 7.89,1.65667 10.45,4.97c2.56,3.32 3.84,7.93667 3.84,13.85zM247.635,256.04667v0c0,-4.12667 -0.88,-7.38667 -2.64,-9.78c-1.76,-2.39333 -4.17667,-3.59 -7.25,-3.59v0c-3.78667,0 -6.63,1.68333 -8.53,5.05v0v17.5c1.87333,3.34 4.74,5.01 8.6,5.01v0c3,0 5.38667,-1.19 7.16,-3.57c1.77333,-2.38 2.66,-5.92 2.66,-10.62zM292.795,256.18667v0.57c0,5.58 -1.27667,10.07333 -3.83,13.48c-2.54667,3.40667 -6,5.11 -10.36,5.11v0c-4.44,0 -7.93667,-1.41 -10.49,-4.23v0v17.64h-6.26v-50.72h5.72l0.3,4.07c2.55333,-3.16 6.09667,-4.74 10.63,-4.74v0c4.4,0 7.88333,1.65667 10.45,4.97c2.56,3.32 3.84,7.93667 3.84,13.85zM286.535,256.04667v0c0,-4.12667 -0.88,-7.38667 -2.64,-9.78c-1.76,-2.39333 -4.17667,-3.59 -7.25,-3.59v0c-3.79333,0 -6.63667,1.68333 -8.53,5.05v0v17.5c1.87333,3.34 4.74,5.01 8.6,5.01v0c3,0 5.38667,-1.19 7.16,-3.57c1.77333,-2.38 2.66,-5.92 2.66,-10.62z"></path></g></g></g>
</svg>