<svg xmlns="http://www.w3.org/2000/svg" x="0px" y="0px" width="50" height="50" viewBox="0,0,256,256">
<g fill="#000000" fill-rule="nonzero" stroke="none" stroke-width="1" stroke-linecap="butt" stroke-linejoin="miter" stroke-miterlimit="10" stroke-dasharray="" stroke-dashoffset="0" font-family="none" font-weight="none" font-size="none" text-anchor="none" style="mix-blend-mode: normal"><g transform="scale(8.53333,8.53333)"><path d="M10.67969,4.18164c-0.611,0 -1.17769,0.13678 -1.67969,0.42578c-1.56887,0.90579 -2.16603,3.11312 -1.84961,5.86133c-2.53769,1.10008 -4.15039,2.71992 -4.15039,4.53125c0,1.81133 1.6127,3.43117 4.15039,4.53125c-0.31626,2.7481 0.28074,4.95554 1.84961,5.86133c0.501,0.289 1.06769,0.42578 1.67969,0.42578c1.30263,0 2.80816,-0.65377 4.32031,-1.77539c1.51228,1.12162 3.01964,1.77539 4.32227,1.77539c0.611,0 1.17769,-0.13678 1.67969,-0.42578c1.56886,-0.90579 2.16602,-3.11315 1.84961,-5.86133c2.53674,-1.10007 4.14844,-2.72031 4.14844,-4.53125c0,-1.81133 -1.6127,-3.43117 -4.15039,-4.53125c0.31626,-2.7481 -0.28074,-4.95554 -1.84961,-5.86133c-0.501,-0.29 -1.06769,-0.42578 -1.67969,-0.42578c-1.30263,0 -2.80816,0.65377 -4.32031,1.77539c-1.51224,-1.12162 -3.01814,-1.77539 -4.32031,-1.77539zM10.67969,5.93164c0.78163,0 1.81527,0.41561 2.9375,1.18555c-0.65982,0.62268 -1.30604,1.33074 -1.92774,2.11914c-1.00837,0.14459 -1.95911,0.35536 -2.83984,0.61914c-0.00473,-0.06108 -0.01593,-0.12517 -0.01953,-0.18555c-0.107,-1.78 0.28392,-3.10688 1.04492,-3.54687c0.225,-0.13 0.48769,-0.19141 0.80469,-0.19141zM19.32031,5.93164c0.316,0 0.57969,0.06141 0.80469,0.19141c0.761,0.439 1.15192,1.76687 1.04492,3.54688c-0.00363,0.06038 -0.01478,0.12447 -0.01953,0.18555c-0.88129,-0.26394 -1.83272,-0.47454 -2.8418,-0.61914c-0.62169,-0.78829 -1.26598,-1.49653 -1.92578,-2.11914c1.12215,-0.76981 2.15627,-1.18555 2.9375,-1.18555zM15,8.22852c0.27108,0.24674 0.54027,0.50752 0.8125,0.79297c-0.26978,-0.00906 -0.53813,-0.02148 -0.8125,-0.02148c-0.27371,0 -0.5414,0.01247 -0.81055,0.02148c0.27199,-0.28515 0.53972,-0.54647 0.81055,-0.79297zM15,10.75c0.82869,0 1.61413,0.04632 2.35938,0.12695c0.45449,0.61774 0.9024,1.27086 1.32227,1.99805c0.40243,0.69703 0.7583,1.41049 1.07227,2.125c-0.31401,0.71494 -0.66959,1.4295 -1.07227,2.12695c-0.41856,0.72509 -0.86536,1.374 -1.31836,1.99023c-0.77157,0.08442 -1.56306,0.13281 -2.36328,0.13281c-0.82869,0 -1.61413,-0.04632 -2.35937,-0.12695c-0.45449,-0.61774 -0.9024,-1.26891 -1.32227,-1.99609c-0.40267,-0.69745 -0.75816,-1.41201 -1.07226,-2.12695c0.31388,-0.71451 0.66983,-1.42797 1.07226,-2.125c0.41872,-0.72509 0.86525,-1.37595 1.31836,-1.99219c0.77157,-0.08442 1.56306,-0.13281 2.36328,-0.13281zM19.74609,11.29102c0.39675,0.09579 0.77816,0.19919 1.13672,0.31445c-0.08123,0.36705 -0.18058,0.74114 -0.29297,1.11914c-0.12868,-0.24147 -0.25347,-0.48371 -0.39258,-0.72461c-0.14313,-0.2478 -0.30202,-0.47044 -0.45117,-0.70898zM10.25195,11.29297c-0.14865,0.23781 -0.30655,0.46002 -0.44922,0.70703c-0.13907,0.24094 -0.26394,0.48311 -0.39258,0.72461c-0.11265,-0.37878 -0.21361,-0.75331 -0.29492,-1.12109c0.36514,-0.11537 0.7456,-0.21753 1.13672,-0.31055zM7.46875,12.24609c0.2107,0.88962 0.50298,1.81182 0.87891,2.75195c-0.37513,0.9379 -0.66618,1.85841 -0.87695,2.74609c-1.74147,-0.84094 -2.7207,-1.88777 -2.7207,-2.74414c0,-0.879 0.95188,-1.88073 2.54688,-2.67773c0.05444,-0.02724 0.11625,-0.04957 0.17188,-0.07617zM22.5293,12.25586c1.74147,0.84094 2.7207,1.88777 2.7207,2.74414c0,0.879 -0.95188,1.88073 -2.54687,2.67773c-0.05444,0.02723 -0.11625,0.04957 -0.17187,0.07617c-0.21082,-0.89014 -0.50071,-1.81321 -0.87695,-2.75391c0.37468,-0.93709 0.66441,-1.8572 0.875,-2.74414zM15,13c-1.105,0 -2,0.895 -2,2c0,1.105 0.895,2 2,2c1.105,0 2,-0.895 2,-2c0,-1.105 -0.895,-2 -2,-2zM9.41016,17.27539c0.12872,0.24156 0.25537,0.48362 0.39453,0.72461c0.14297,0.24762 0.30023,0.47061 0.44922,0.70898c-0.39675,-0.09579 -0.77816,-0.19919 -1.13672,-0.31445c0.08129,-0.36728 0.18048,-0.7409 0.29297,-1.11914zM20.58984,17.27734c0.11252,0.37842 0.21367,0.75171 0.29492,1.11914c-0.36514,0.11537 -0.7456,0.21753 -1.13672,0.31055c0.14865,-0.23781 0.30655,-0.46002 0.44922,-0.70703c0.13878,-0.24044 0.26418,-0.48166 0.39258,-0.72266zM8.84961,20.14453c0.88129,0.26394 1.83272,0.47454 2.8418,0.61914c0.62188,0.78867 1.26568,1.49826 1.92578,2.12109c-1.12215,0.76972 -2.15592,1.18555 -2.9375,1.18555c-0.316,0 -0.57969,-0.06336 -0.80469,-0.19336c-0.761,-0.439 -1.15192,-1.76492 -1.04492,-3.54492c0.00366,-0.06101 0.01472,-0.12578 0.01953,-0.1875zM21.15039,20.14453c0.00479,0.06172 0.01589,0.12649 0.01953,0.1875c0.107,1.78 -0.28392,3.10492 -1.04492,3.54492c-0.225,0.13 -0.48769,0.19336 -0.80469,0.19336c-0.78158,0 -1.81535,-0.4157 -2.9375,-1.18555c0.66015,-0.6229 1.30573,-1.33231 1.92773,-2.12109c1.00837,-0.14459 1.95911,-0.35536 2.83984,-0.61914zM14.1875,20.97852c0.26978,0.00906 0.53813,0.02148 0.8125,0.02148c0.27437,0 0.54272,-0.01242 0.8125,-0.02148c-0.27223,0.28545 -0.54142,0.54625 -0.8125,0.79297c-0.27108,-0.24674 -0.54027,-0.50752 -0.8125,-0.79297z"></path></g></g><g fill="#000000" fill-rule="nonzero" stroke="none" stroke-width="1" stroke-linecap="butt" stroke-linejoin="miter" stroke-miterlimit="10" stroke-dasharray="" stroke-dashoffset="0" font-family="none" font-weight="none" font-size="none" text-anchor="none" style="mix-blend-mode: normal"><g><path d="M56.715,253.25l-6.58,-12.27h-7.13v12.27h-4.02v-30.34h10.04c3.42,0 6.05,0.78 7.89,2.34c1.84,1.55333 2.76,3.81667 2.76,6.79v0c0,1.88667 -0.51,3.53333 -1.53,4.94c-1.02,1.4 -2.44,2.44667 -4.26,3.14v0l7.12,12.88v0.25zM43.005,226.21v11.5h6.15c1.98667,0 3.56667,-0.51667 4.74,-1.55c1.17333,-1.02667 1.76,-2.4 1.76,-4.12v0c0,-1.87333 -0.56,-3.31 -1.68,-4.31c-1.12,-1 -2.73333,-1.50667 -4.84,-1.52v0zM74.025,253.66v0c-3.05333,0 -5.54,-1.00333 -7.46,-3.01c-1.91333,-2.00667 -2.87,-4.69 -2.87,-8.05v0v-0.71c0,-2.23333 0.42667,-4.23 1.28,-5.99c0.85333,-1.75333 2.04667,-3.12667 3.58,-4.12c1.54,-0.99333 3.20333,-1.49 4.99,-1.49v0c2.93333,0 5.21333,0.96333 6.84,2.89c1.62,1.93333 2.43,4.7 2.43,8.3v0v1.6h-15.27c0.06,2.22 0.71,4.01667 1.95,5.39c1.24667,1.36667 2.82667,2.05 4.74,2.05v0c1.36,0 2.51333,-0.28 3.46,-0.84c0.94667,-0.55333 1.77333,-1.28667 2.48,-2.2v0l2.35,1.83c-1.88667,2.9 -4.72,4.35 -8.5,4.35zM73.545,233.46v0c-1.55333,0 -2.85667,0.56333 -3.91,1.69c-1.06,1.13333 -1.71333,2.72 -1.96,4.76v0h11.29v-0.29c-0.11333,-1.96 -0.64,-3.47667 -1.58,-4.55c-0.94667,-1.07333 -2.22667,-1.61 -3.84,-1.61zM105.235,253.25h-4.04c-0.22,-0.44667 -0.4,-1.24 -0.54,-2.38v0c-1.79333,1.86 -3.93333,2.79 -6.42,2.79v0c-2.22,0 -4.04333,-0.62667 -5.47,-1.88c-1.42,-1.26 -2.13,-2.85333 -2.13,-4.78v0c0,-2.34667 0.89,-4.17 2.67,-5.47c1.78667,-1.3 4.29667,-1.95 7.53,-1.95v0h3.75v-1.77c0,-1.34667 -0.4,-2.42 -1.2,-3.22c-0.80667,-0.8 -1.99667,-1.2 -3.57,-1.2v0c-1.37333,0 -2.52333,0.34667 -3.45,1.04c-0.93333,0.7 -1.4,1.54333 -1.4,2.53v0h-3.88c0,-1.12667 0.4,-2.21667 1.2,-3.27c0.8,-1.04667 1.88333,-1.87333 3.25,-2.48c1.36667,-0.61333 2.87,-0.92 4.51,-0.92v0c2.6,0 4.63667,0.65 6.11,1.95c1.47333,1.29333 2.23667,3.08 2.29,5.36v0v10.38c0,2.06667 0.26333,3.71 0.79,4.93v0zM94.795,250.31v0c1.21333,0 2.36,-0.31333 3.44,-0.94c1.08667,-0.62667 1.87,-1.44 2.35,-2.44v0v-4.62h-3.02c-4.72,0 -7.08,1.38333 -7.08,4.15v0c0,1.20667 0.40333,2.15 1.21,2.83c0.80667,0.68 1.84,1.02 3.1,1.02zM119.525,250.52v0c1.37333,0 2.57667,-0.41667 3.61,-1.25c1.02667,-0.83333 1.59333,-1.87667 1.7,-3.13v0h3.65c-0.06667,1.29333 -0.51,2.52333 -1.33,3.69c-0.82,1.16667 -1.91333,2.09667 -3.28,2.79c-1.37333,0.69333 -2.82333,1.04 -4.35,1.04v0c-3.06667,0 -5.50667,-1.02333 -7.32,-3.07c-1.81333,-2.04667 -2.72,-4.85 -2.72,-8.41v0v-0.64c0,-2.19333 0.40333,-4.14667 1.21,-5.86c0.80667,-1.70667 1.96333,-3.03 3.47,-3.97c1.50667,-0.94667 3.28667,-1.42 5.34,-1.42v0c2.52667,0 4.62667,0.75667 6.3,2.27c1.67333,1.51333 2.56667,3.48 2.68,5.9v0h-3.65c-0.10667,-1.46 -0.65667,-2.66 -1.65,-3.6c-0.99333,-0.93333 -2.22,-1.4 -3.68,-1.4v0c-1.96,0 -3.47667,0.70333 -4.55,2.11c-1.08,1.40667 -1.62,3.44333 -1.62,6.11v0v0.73c0,2.6 0.53667,4.6 1.61,6c1.06667,1.40667 2.59333,2.11 4.58,2.11zM134.195,225.25h3.85v5.46h4.21v2.97h-4.21v13.98c0,0.90667 0.18667,1.58333 0.56,2.03c0.38,0.45333 1.02,0.68 1.92,0.68v0c0.44667,0 1.05667,-0.08333 1.83,-0.25v0v3.13c-1.01333,0.27333 -1.99667,0.41 -2.95,0.41v0c-1.72667,0 -3.02667,-0.52 -3.9,-1.56c-0.87333,-1.04 -1.31,-2.52 -1.31,-4.44v0v-13.98h-4.11v-2.97h4.11zM170.635,244.46v-21.55h4.02v21.48c0,2.90667 -0.87333,5.18 -2.62,6.82c-1.74,1.63333 -4.06333,2.45 -6.97,2.45v0c-3.01333,0 -5.36,-0.77 -7.04,-2.31c-1.68,-1.54 -2.52,-3.7 -2.52,-6.48v0h4c0,1.74 0.47667,3.09333 1.43,4.06c0.94667,0.97333 2.32333,1.46 4.13,1.46v0c1.65333,0 2.99,-0.52 4.01,-1.56c1.02667,-1.04 1.54667,-2.49667 1.56,-4.37zM190.405,239.73v0c-3.43333,-0.98667 -5.93,-2.2 -7.49,-3.64c-1.56667,-1.44 -2.35,-3.21333 -2.35,-5.32v0c0,-2.39333 0.95667,-4.37 2.87,-5.93c1.90667,-1.56 4.39,-2.34 7.45,-2.34v0c2.08,0 3.93667,0.40333 5.57,1.21c1.63333,0.8 2.89667,1.91 3.79,3.33c0.89333,1.41333 1.34,2.96 1.34,4.64v0h-4.02c0,-1.83333 -0.58333,-3.27333 -1.75,-4.32c-1.16667,-1.04667 -2.81,-1.57 -4.93,-1.57v0c-1.97333,0 -3.51333,0.43333 -4.62,1.3c-1.10667,0.86667 -1.66,2.07333 -1.66,3.62v0c0,1.23333 0.52667,2.27667 1.58,3.13c1.04667,0.85333 2.83,1.63333 5.35,2.34c2.52,0.71333 4.49333,1.49667 5.92,2.35c1.42,0.85333 2.47667,1.85 3.17,2.99c0.68667,1.14 1.03,2.48 1.03,4.02v0c0,2.46 -0.96,4.42667 -2.88,5.9c-1.91333,1.48 -4.47667,2.22 -7.69,2.22v0c-2.08,0 -4.02333,-0.39667 -5.83,-1.19c-1.80667,-0.8 -3.2,-1.89667 -4.18,-3.29c-0.98,-1.38667 -1.47,-2.96 -1.47,-4.72v0h4.03c0,1.83333 0.67667,3.28 2.03,4.34c1.35333,1.06 3.16,1.59 5.42,1.59v0c2.11333,0 3.73333,-0.43 4.86,-1.29c1.12667,-0.86 1.69,-2.03333 1.69,-3.52c0,-1.48667 -0.52333,-2.63667 -1.57,-3.45c-1.04,-0.81333 -2.92667,-1.61333 -5.66,-2.4z"></path></g></g>
</svg>