<svg xmlns="http://www.w3.org/2000/svg" x="0px" y="0px" width="50" height="50" viewBox="0,0,256,256">
<g transform="translate(33.28,33.28) scale(0.74,0.74)"><g fill="#000000" fill-rule="nonzero" stroke="none" stroke-width="1" stroke-linecap="butt" stroke-linejoin="miter" stroke-miterlimit="10" stroke-dasharray="" stroke-dashoffset="0" font-family="none" font-weight="none" font-size="none" text-anchor="none" style="mix-blend-mode: normal"><g transform="translate(-7.31969,-51.66903) scale(5.12,5.12)"><path d="M43.64063,1.00195c-1.46338,-0.04058 -3.02891,0.76641 -4.58203,2.14453c-0.369,0.328 -0.73752,0.69208 -1.10352,1.08008c-4.25,4.509 -8.19588,12.86028 -9.42187,19.23828c0.477,0.968 0.85166,2.20444 1.09766,3.14844c0.063,0.242 0.11906,0.46811 0.16406,0.66211c0.108,0.458 0.16602,0.75391 0.16602,0.75391c0,0 -0.03736,-0.14366 -0.19336,-0.59766c-0.03,-0.087 -0.06452,-0.18097 -0.10352,-0.29297c-0.017,-0.046 -0.03845,-0.10211 -0.06445,-0.16211c-0.277,-0.645 -1.04481,-2.00566 -1.38281,-2.59766c-0.289,0.852 -0.54286,1.64814 -0.75586,2.36914c0.974,1.783 1.56641,4.83789 1.56641,4.83789c0,0 -0.04992,-0.19767 -0.29492,-0.88867c-0.217,-0.611 -1.29964,-2.50912 -1.55664,-2.95312c-0.439,1.62 -0.61403,2.71447 -0.45703,2.98047c0.305,0.516 0.59656,1.40467 0.85156,2.38867c0.089,0.341 0.17195,0.69292 0.25195,1.04492c-0.265,2.327 -0.32722,4.66452 -0.19922,6.97852c0.133,2.508 0.48386,4.98378 0.88086,7.42578c0.042,0.257 0.27802,0.44297 0.54102,0.41797c0.275,-0.026 0.47717,-0.26992 0.45117,-0.54492c-0.125,-1.331 -0.23083,-2.65842 -0.29883,-3.98242l0.06055,0.59375c-0.095,-1.189 -0.12131,-2.46903 -0.07031,-3.83203c0.181,-4.834 1.29461,-10.66423 3.34961,-16.74023c3.473,-9.172 8.29022,-16.53287 12.69922,-20.04687c-4.019,3.63 -9.45794,15.37947 -11.08594,19.73047c-1.823,4.872 -3.11553,9.44322 -3.89453,13.82422c1.344,-4.107 5.6875,-5.87109 5.6875,-5.87109c0,0 2.13209,-2.62881 4.62109,-6.38281c-1.491,0.34 -3.94172,0.92258 -4.76172,1.26758c-1.21,0.508 -1.53516,0.68164 -1.53516,0.68164c0,0 3.91925,-2.38775 7.28125,-3.46875c4.625,-7.284 9.66384,-17.6322 4.58984,-22.1582c-0.77963,-0.69525 -1.62002,-1.02448 -2.49805,-1.04883zM9,3c-2.21,0 -4,1.79 -4,4v33c0,2.21 1.79,4 4,4h16.84961c-0.1,-0.9 -0.16875,-1.82977 -0.21875,-2.75977c-0.13,-2.32 -0.08008,-4.67094 0.16992,-6.96094c-0.06,-0.23 -0.10992,-0.45016 -0.16992,-0.66016c-0.34,-1.32 -0.57086,-1.76891 -0.63086,-1.87891c-0.45,-0.75 -0.52977,-1.65953 0.24023,-4.51953c0.661,-2.265 3.54614,-16.0577 11.11914,-24.2207z"></path></g></g><g fill="#000000" fill-rule="nonzero" stroke="none" stroke-width="1" stroke-linecap="butt" stroke-linejoin="miter" stroke-miterlimit="10" stroke-dasharray="" stroke-dashoffset="0" font-family="none" font-weight="none" font-size="none" text-anchor="none" style="mix-blend-mode: normal"><g><path d="M14.335,250.284v0c-7.82667,-2.24667 -13.52,-5.01 -17.08,-8.29c-3.56,-3.27333 -5.34,-7.31667 -5.34,-12.13v0c0,-5.44667 2.17667,-9.95333 6.53,-13.52c4.35333,-3.56 10.01333,-5.34 16.98,-5.34v0c4.74667,0 8.98,0.91667 12.7,2.75c3.72667,1.84 6.61,4.37333 8.65,7.6c2.04,3.23333 3.06,6.76667 3.06,10.6v0h-9.17c0,-4.18 -1.32667,-7.46667 -3.98,-9.86c-2.66,-2.39333 -6.41333,-3.59 -11.26,-3.59v0c-4.5,0 -8.00667,0.99 -10.52,2.97c-2.52,1.98 -3.78,4.72667 -3.78,8.24v0c0,2.82 1.19667,5.20333 3.59,7.15c2.38667,1.94667 6.45333,3.73 12.2,5.35c5.75333,1.61333 10.25,3.39333 13.49,5.34c3.24667,1.94667 5.65333,4.22 7.22,6.82c1.56667,2.59333 2.35,5.64667 2.35,9.16v0c0,5.60667 -2.18333,10.09667 -6.55,13.47c-4.36667,3.37333 -10.21,5.06 -17.53,5.06v0c-4.74667,0 -9.18,-0.91 -13.3,-2.73c-4.11333,-1.82 -7.28667,-4.31333 -9.52,-7.48c-2.23333,-3.16667 -3.35,-6.76333 -3.35,-10.79v0h9.17c0,4.18 1.54333,7.48333 4.63,9.91c3.08667,2.42 7.21,3.63 12.37,3.63v0c4.81333,0 8.50333,-0.98 11.07,-2.94c2.56667,-1.96667 3.85,-4.64333 3.85,-8.03c0,-3.38667 -1.18667,-6.00667 -3.56,-7.86c-2.38,-1.85333 -6.68667,-3.68333 -12.92,-5.49zM104.485,244.354v4.41c0,6.68 -1.06,12.43667 -3.18,17.27c-2.12667,4.82667 -5.10333,8.60333 -8.93,11.33v0l12.35,9.69l-6.23,5.75l-14.58,-11.59c-2.28,0.56667 -4.68667,0.85 -7.22,0.85v0c-5.44667,0 -10.27667,-1.33667 -14.49,-4.01c-4.20667,-2.68 -7.47333,-6.49667 -9.8,-11.45c-2.33333,-4.95333 -3.53,-10.69333 -3.59,-17.22v0v-4.99c0,-6.64667 1.15667,-12.52 3.47,-17.62c2.31333,-5.1 5.58333,-9.00333 9.81,-11.71c4.22667,-2.70667 9.06333,-4.06 14.51,-4.06v0c5.57333,0 10.47333,1.34667 14.7,4.04c4.22667,2.68667 7.48,6.55667 9.76,11.61c2.28,5.05333 3.42,10.95333 3.42,17.7zM95.365,249.434v-5.13c0,-8.14 -1.62333,-14.42 -4.87,-18.84c-3.24667,-4.41333 -7.87667,-6.62 -13.89,-6.62v0c-5.73333,0 -10.25333,2.19333 -13.56,6.58c-3.31333,4.38 -5.01667,10.46667 -5.11,18.26v0v5.08c0,7.92 1.65333,14.16 4.96,18.72c3.31333,4.56 7.91333,6.84 13.8,6.84c5.89333,0 10.45333,-2.14667 13.68,-6.44c3.23333,-4.28667 4.89667,-10.43667 4.99,-18.45zM127.715,211.954v61.7h32.77v7.46h-41.94v-69.16zM179.055,229.714v51.4h-8.78v-51.4zM169.555,216.084v0c0,-1.42667 0.43667,-2.63 1.31,-3.61c0.87333,-0.98 2.16333,-1.47 3.87,-1.47c1.71333,0 3.01333,0.49 3.9,1.47c0.88667,0.98 1.33,2.18333 1.33,3.61c0,1.42667 -0.44333,2.61333 -1.33,3.56c-0.88667,0.95333 -2.18667,1.43 -3.9,1.43c-1.70667,0 -2.99667,-0.47667 -3.87,-1.43c-0.87333,-0.94667 -1.31,-2.13333 -1.31,-3.56zM196.255,217.274h8.79v12.44h9.59v6.8h-9.59v31.87c0,2.06 0.42667,3.60333 1.28,4.63c0.85333,1.02667 2.31,1.54 4.37,1.54v0c1.01333,0 2.40667,-0.18667 4.18,-0.56v0v7.12c-2.31333,0.63333 -4.56,0.95 -6.74,0.95v0c-3.92667,0 -6.89,-1.18667 -8.89,-3.56c-1.99333,-2.37333 -2.99,-5.74667 -2.99,-10.12v0v-31.87h-9.36v-6.8h9.36zM246.225,282.064v0c-6.96667,0 -12.63333,-2.28667 -17,-6.86c-4.37333,-4.58 -6.56,-10.7 -6.56,-18.36v0v-1.62c0,-5.1 0.97333,-9.65 2.92,-13.65c1.94667,-4.00667 4.67,-7.14333 8.17,-9.41c3.5,-2.26 7.29333,-3.39 11.38,-3.39v0c6.68,0 11.87333,2.2 15.58,6.6c3.70667,4.4 5.56,10.7 5.56,18.9v0v3.66h-34.82c0.12667,5.06667 1.60667,9.16 4.44,12.28c2.83333,3.12 6.43667,4.68 10.81,4.68v0c3.1,0 5.72667,-0.63333 7.88,-1.9c2.15333,-1.26667 4.03667,-2.94667 5.65,-5.04v0l5.37,4.18c-4.30667,6.62 -10.76667,9.93 -19.38,9.93zM245.135,235.994v0c-3.54667,0 -6.52333,1.29 -8.93,3.87c-2.40667,2.58 -3.89667,6.19667 -4.47,10.85v0h25.75v-0.66c-0.25333,-4.46667 -1.45667,-7.92667 -3.61,-10.38c-2.15333,-2.45333 -5.06667,-3.68 -8.74,-3.68z"></path></g></g></g>
</svg>