<svg xmlns="http://www.w3.org/2000/svg" x="0px" y="0px" width="50" height="50" viewBox="0,0,256,256">
<g fill="#000000" fill-rule="nonzero" stroke="none" stroke-width="1" stroke-linecap="butt" stroke-linejoin="miter" stroke-miterlimit="10" stroke-dasharray="" stroke-dashoffset="0" font-family="none" font-weight="none" font-size="none" text-anchor="none" style="mix-blend-mode: normal"><g transform="scale(5.12,5.12)"><path d="M43.64063,1.00195c-1.46338,-0.04058 -3.02891,0.76641 -4.58203,2.14453c-0.369,0.328 -0.73752,0.69208 -1.10352,1.08008c-4.25,4.509 -8.19588,12.86028 -9.42187,19.23828c0.477,0.968 0.85166,2.20444 1.09766,3.14844c0.063,0.242 0.11906,0.46811 0.16406,0.66211c0.108,0.458 0.16602,0.75391 0.16602,0.75391c0,0 -0.03736,-0.14366 -0.19336,-0.59766c-0.03,-0.087 -0.06452,-0.18097 -0.10352,-0.29297c-0.017,-0.046 -0.03845,-0.10211 -0.06445,-0.16211c-0.277,-0.645 -1.04481,-2.00566 -1.38281,-2.59766c-0.289,0.852 -0.54286,1.64814 -0.75586,2.36914c0.974,1.783 1.56641,4.83789 1.56641,4.83789c0,0 -0.04992,-0.19767 -0.29492,-0.88867c-0.217,-0.611 -1.29964,-2.50912 -1.55664,-2.95312c-0.439,1.62 -0.61403,2.71447 -0.45703,2.98047c0.305,0.516 0.59656,1.40467 0.85156,2.38867c0.089,0.341 0.17195,0.69292 0.25195,1.04492c-0.265,2.327 -0.32722,4.66452 -0.19922,6.97852c0.133,2.508 0.48386,4.98378 0.88086,7.42578c0.042,0.257 0.27802,0.44297 0.54102,0.41797c0.275,-0.026 0.47717,-0.26992 0.45117,-0.54492c-0.125,-1.331 -0.23083,-2.65842 -0.29883,-3.98242l0.06055,0.59375c-0.095,-1.189 -0.12131,-2.46903 -0.07031,-3.83203c0.181,-4.834 1.29461,-10.66423 3.34961,-16.74023c3.473,-9.172 8.29022,-16.53287 12.69922,-20.04687c-4.019,3.63 -9.45794,15.37947 -11.08594,19.73047c-1.823,4.872 -3.11553,9.44322 -3.89453,13.82422c1.344,-4.107 5.6875,-5.87109 5.6875,-5.87109c0,0 2.13209,-2.62881 4.62109,-6.38281c-1.491,0.34 -3.94172,0.92258 -4.76172,1.26758c-1.21,0.508 -1.53516,0.68164 -1.53516,0.68164c0,0 3.91925,-2.38775 7.28125,-3.46875c4.625,-7.284 9.66384,-17.6322 4.58984,-22.1582c-0.77963,-0.69525 -1.62002,-1.02448 -2.49805,-1.04883zM9,3c-2.21,0 -4,1.79 -4,4v33c0,2.21 1.79,4 4,4h16.84961c-0.1,-0.9 -0.16875,-1.82977 -0.21875,-2.75977c-0.13,-2.32 -0.08008,-4.67094 0.16992,-6.96094c-0.06,-0.23 -0.10992,-0.45016 -0.16992,-0.66016c-0.34,-1.32 -0.57086,-1.76891 -0.63086,-1.87891c-0.45,-0.75 -0.52977,-1.65953 0.24023,-4.51953c0.661,-2.265 3.54614,-16.0577 11.11914,-24.2207z"></path></g></g><g fill="#000000" fill-rule="nonzero" stroke="none" stroke-width="1" stroke-linecap="butt" stroke-linejoin="miter" stroke-miterlimit="10" stroke-dasharray="" stroke-dashoffset="0" font-family="none" font-weight="none" font-size="none" text-anchor="none" style="mix-blend-mode: normal"><g><path d="M169.701,207.447v0c-2.06,-0.59333 -3.56,-1.32 -4.5,-2.18c-0.93333,-0.86667 -1.4,-1.93333 -1.4,-3.2v0c0,-1.43333 0.57,-2.61667 1.71,-3.55c1.14667,-0.94 2.63667,-1.41 4.47,-1.41v0c1.25333,0 2.37,0.24333 3.35,0.73c0.98,0.48 1.73667,1.14667 2.27,2c0.54,0.84667 0.81,1.77333 0.81,2.78v0h-2.41c0,-1.1 -0.35,-1.96333 -1.05,-2.59c-0.7,-0.62667 -1.69,-0.94 -2.97,-0.94v0c-1.18,0 -2.10333,0.26 -2.77,0.78c-0.66,0.52 -0.99,1.24333 -0.99,2.17v0c0,0.74 0.31333,1.36667 0.94,1.88c0.63333,0.51333 1.70667,0.98 3.22,1.4c1.51333,0.42667 2.69667,0.89667 3.55,1.41c0.85333,0.51333 1.48667,1.11 1.9,1.79c0.41333,0.68667 0.62,1.49333 0.62,2.42v0c0,1.47333 -0.57667,2.65333 -1.73,3.54c-1.14667,0.88667 -2.68333,1.33 -4.61,1.33v0c-1.25333,0 -2.42,-0.24 -3.5,-0.72c-1.08667,-0.48 -1.92333,-1.13667 -2.51,-1.97c-0.58667,-0.83333 -0.88,-1.77667 -0.88,-2.83v0h2.41c0,1.1 0.40667,1.96667 1.22,2.6c0.81333,0.64 1.9,0.96 3.26,0.96v0c1.26667,0 2.23667,-0.26 2.91,-0.78c0.67333,-0.51333 1.01,-1.21667 1.01,-2.11c0,-0.89333 -0.31,-1.58333 -0.93,-2.07c-0.62667,-0.48667 -1.76,-0.96667 -3.4,-1.44zM193.421,205.887v1.16c0,1.76 -0.28,3.27333 -0.84,4.54c-0.56,1.27333 -1.34333,2.26667 -2.35,2.98v0l3.25,2.55l-1.63,1.52l-3.84,-3.05c-0.6,0.14667 -1.23333,0.22 -1.9,0.22v0c-1.43333,0 -2.70667,-0.35333 -3.82,-1.06c-1.10667,-0.7 -1.96667,-1.70333 -2.58,-3.01c-0.61333,-1.3 -0.92667,-2.81 -0.94,-4.53v0v-1.31c0,-1.75333 0.30333,-3.3 0.91,-4.64c0.61333,-1.34 1.47333,-2.36667 2.58,-3.08c1.11333,-0.71333 2.38667,-1.07 3.82,-1.07v0c1.46667,0 2.75667,0.35333 3.87,1.06c1.11333,0.71333 1.97,1.73333 2.57,3.06c0.6,1.32667 0.9,2.88 0.9,4.66zM191.021,207.217v-1.35c0,-2.14 -0.42667,-3.79 -1.28,-4.95c-0.85333,-1.16667 -2.07333,-1.75 -3.66,-1.75v0c-1.50667,0 -2.69667,0.57667 -3.57,1.73c-0.86667,1.16 -1.31333,2.76333 -1.34,4.81v0v1.34c0,2.08 0.43667,3.72 1.31,4.92c0.86667,1.2 2.07667,1.8 3.63,1.8c1.54667,0 2.74667,-0.56333 3.6,-1.69c0.84667,-1.12667 1.28333,-2.74667 1.31,-4.86zM199.531,197.357v16.24h8.63v1.96h-11.04v-18.2zM213.471,197.357v18.2h-2.4v-18.2zM230.071,197.357v1.98h-5.85v16.22h-2.39v-16.22h-5.84v-1.98zM243.061,205.187v1.96h-7.89v6.45h9.16v1.96h-11.56v-18.2h11.44v1.98h-9.04v5.85z"></path></g></g>
</svg>